<svg width="32" height="32" viewBox="0 0 32 32" fill="none" xmlns="http://www.w3.org/2000/svg">
<path fill-rule="evenodd" clip-rule="evenodd" d="M4.1975 2.19446C2 3.88747 2 6.61422 2 12.0663V13.1506H32V12.0663C32 6.61422 32 3.88747 29.8025 2.19446C27.605 0.501446 24.0706 0.5 17 0.5C9.92938 0.5 6.39313 0.5 4.1975 2.19446ZM26.375 6.64458C26.748 6.64458 27.1056 6.75882 27.3694 6.96217C27.6331 7.16553 27.7812 7.44133 27.7812 7.72892V10.6205C27.7812 10.9081 27.6331 11.1839 27.3694 11.3872C27.1056 11.5906 26.748 11.7048 26.375 11.7048C26.002 11.7048 25.6444 11.5906 25.3806 11.3872C25.1169 11.1839 24.9688 10.9081 24.9688 10.6205V7.72892C24.9688 7.44133 25.1169 7.16553 25.3806 6.96217C25.6444 6.75882 26.002 6.64458 26.375 6.64458ZM2 15.3193V16.4036C2 21.8557 2 24.5824 4.1975 26.2754C4.77269 26.7164 5.4612 27.0597 6.21875 27.2831V29.4157C6.21875 30.0142 6.84875 30.5 7.625 30.5H9.5C9.87296 30.5 10.2306 30.3858 10.4944 30.1824C10.7581 29.9791 10.9062 29.7032 10.9062 29.4157V27.9019C12.5844 27.9699 14.585 27.9699 17 27.9699C19.415 27.9699 21.4156 27.9699 23.0938 27.9019V29.4157C23.0938 30.0142 23.7237 30.5 24.5 30.5H26.375C26.748 30.5 27.1056 30.3858 27.3694 30.1824C27.6331 29.9791 27.7812 29.7032 27.7812 29.4157V27.2831C28.5388 27.0597 29.2273 26.7164 29.8025 26.2754C32 24.5824 32 21.8557 32 16.4036V15.3193H2ZM26.375 16.7651C26.748 16.7651 27.1056 16.8793 27.3694 17.0827C27.6331 17.286 27.7812 17.5618 27.7812 17.8494V20.741C27.7812 21.0285 27.6331 21.3044 27.3694 21.5077C27.1056 21.7111 26.748 21.8253 26.375 21.8253C26.002 21.8253 25.6444 21.7111 25.3806 21.5077C25.1169 21.3044 24.9688 21.0285 24.9688 20.741V17.8494C24.9688 17.5618 25.1169 17.286 25.3806 17.0827C25.6444 16.8793 26.002 16.7651 26.375 16.7651Z" fill="white"/>
</svg>
