<svg width="32" height="32" viewBox="0 0 32 32" fill="none" xmlns="http://www.w3.org/2000/svg">
<path fill-rule="evenodd" clip-rule="evenodd" d="M12.7129 6.28606C12.9457 6.28611 13.1722 6.36199 13.358 6.50222C13.5438 6.64245 13.6789 6.8394 13.7429 7.06327L14.9042 11.1293C15.1543 12.005 15.6234 12.8024 16.2673 13.4464C16.9111 14.0903 17.7085 14.5595 18.584 14.8096L22.6495 15.9711C22.8732 16.0352 23.07 16.1704 23.21 16.3563C23.3501 16.5421 23.4259 16.7685 23.4259 17.0012C23.4259 17.2339 23.3501 17.4603 23.21 17.6462C23.07 17.832 22.8732 17.9672 22.6495 18.0313L18.584 19.1928C17.7085 19.4429 16.9111 19.9121 16.2673 20.556C15.6234 21.2 15.1543 21.9975 14.9042 22.8731L13.7429 26.9392C13.6788 27.1629 13.5436 27.3597 13.3578 27.4998C13.172 27.6398 12.9456 27.7156 12.7129 27.7156C12.4802 27.7156 12.2539 27.6398 12.0681 27.4998C11.8822 27.3597 11.7471 27.1629 11.683 26.9392L10.5216 22.8731C10.2716 21.9975 9.80245 21.2 9.15859 20.556C8.51473 19.9121 7.71737 19.4429 6.84182 19.1928L2.77633 18.0313C2.55263 17.9672 2.35588 17.832 2.21582 17.6462C2.07576 17.4603 2 17.2339 2 17.0012C2 16.7685 2.07576 16.5421 2.21582 16.3563C2.35588 16.1704 2.55263 16.0352 2.77633 15.9711L6.84182 14.8096C7.71737 14.5595 8.51473 14.0903 9.15859 13.4464C9.80245 12.8024 10.2716 12.005 10.5216 11.1293L11.683 7.06327C11.7469 6.8394 11.882 6.64245 12.0679 6.50222C12.2537 6.36199 12.4801 6.28611 12.7129 6.28606ZM25.5694 2C25.8084 1.99987 26.0406 2.07967 26.229 2.22671C26.4175 2.37376 26.5513 2.5796 26.6093 2.81149L26.9779 4.29161C27.315 5.63458 28.3635 6.68324 29.7063 7.02041L31.1862 7.38901C31.4185 7.44656 31.6249 7.58025 31.7724 7.76875C31.9199 7.95726 32 8.18973 32 8.42909C32 8.66846 31.9199 8.90093 31.7724 9.08943C31.6249 9.27794 31.4185 9.41163 31.1862 9.46918L29.7063 9.83778C28.3635 10.1749 27.315 11.2236 26.9779 12.5666L26.6093 14.0467C26.5518 14.279 26.4181 14.4854 26.2296 14.6329C26.0411 14.7804 25.8087 14.8606 25.5694 14.8606C25.33 14.8606 25.0976 14.7804 24.9091 14.6329C24.7206 14.4854 24.587 14.279 24.5294 14.0467L24.1609 12.5666C23.9961 11.9071 23.6551 11.3049 23.1745 10.8243C22.694 10.3436 22.0918 10.0026 21.4325 9.83778L19.9525 9.46918C19.7202 9.41163 19.5139 9.27794 19.3664 9.08943C19.2189 8.90093 19.1388 8.66846 19.1388 8.42909C19.1388 8.18973 19.2189 7.95726 19.3664 7.76875C19.5139 7.58025 19.7202 7.44656 19.9525 7.38901L21.4325 7.02041C22.0918 6.85555 22.694 6.51458 23.1745 6.03393C23.6551 5.55329 23.9961 4.95105 24.1609 4.29161L24.5294 2.81149C24.5874 2.5796 24.7213 2.37376 24.9097 2.22671C25.0982 2.07967 25.3304 1.99987 25.5694 2ZM23.4266 21.2873C23.6516 21.2871 23.871 21.3579 24.0535 21.4894C24.2361 21.621 24.3726 21.8067 24.4437 22.0202L25.0066 23.7103C25.2208 24.349 25.7208 24.8519 26.3608 25.0647L28.0507 25.6291C28.2635 25.7005 28.4485 25.837 28.5795 26.0193C28.7106 26.2015 28.7811 26.4204 28.7811 26.6449C28.7811 26.8694 28.7106 27.0882 28.5795 27.2704C28.4485 27.4527 28.2635 27.5892 28.0507 27.6607L26.3608 28.225C25.7222 28.4393 25.2194 28.9393 25.0066 29.5794L24.4423 31.2695C24.3709 31.4823 24.2344 31.6673 24.0521 31.7984C23.8699 31.9295 23.6511 32 23.4266 32C23.2022 32 22.9834 31.9295 22.8011 31.7984C22.6189 31.6673 22.4824 31.4823 22.411 31.2695L21.8467 29.5794C21.7415 29.264 21.5644 28.9775 21.3293 28.7424C21.0943 28.5074 20.8078 28.3302 20.4925 28.225L18.8026 27.6607C18.5898 27.5892 18.4048 27.4527 18.2738 27.2704C18.1427 27.0882 18.0722 26.8694 18.0722 26.6449C18.0722 26.4204 18.1427 26.2015 18.2738 26.0193C18.4048 25.837 18.5898 25.7005 18.8026 25.6291L20.4925 25.0647C21.131 24.8504 21.6339 24.3504 21.8467 23.7103L22.411 22.0202C22.482 21.8069 22.6183 21.6214 22.8006 21.4898C22.9829 21.3583 23.2019 21.2874 23.4266 21.2873Z" fill="white"/>
</svg>
