<svg width="32" height="32" viewBox="0 0 32 32" fill="none" xmlns="http://www.w3.org/2000/svg">
<path fill-rule="evenodd" clip-rule="evenodd" d="M12.84 5.88446C12.7161 5.41482 12.5501 4.95746 12.344 4.51802C10.8366 1.29932 7.52641 -0.314376 4.94726 0.908907C2.36811 2.13219 1.4969 5.72829 3.00643 8.94266C3.21777 9.3938 3.46217 9.81169 3.73963 10.1963C2.57729 11.2157 1.86997 12.8424 1.95407 14.6513C2.0317 14.647 2.11077 14.6448 2.19128 14.6448H10.6231C10.0747 12.8246 9.14858 11.142 7.90595 9.7083C7.67374 9.43477 7.55908 9.07967 7.58719 8.72112C7.61529 8.36256 7.78387 8.02992 8.05582 7.79638C8.32778 7.56283 8.68083 7.44751 9.03733 7.47578C9.39382 7.50405 9.72455 7.67359 9.95676 7.94712C11.4617 9.69422 12.5791 11.7438 13.2346 13.9594C13.4831 12.6214 14.0308 11.3577 14.8363 10.2639C15.6417 9.17012 16.6839 8.27479 17.884 7.64564C16.4736 6.10569 14.3668 5.62852 12.84 5.88446ZM22.0891 9.40465C25.6387 9.40465 27.7348 11.283 27.9914 14.6513L27.8102 14.647H16.1868C16.4434 11.2808 18.5395 9.40465 22.0891 9.40465ZM0.213793 18.8808C-1.05422 25.0926 3.24796 28.5 15.0008 28.5C26.7536 28.5 31.0557 25.0948 29.7856 18.8873C29.5958 17.9655 28.7461 17.3603 27.8124 17.3603H2.19128C1.25537 17.3603 0.40572 17.9655 0.21595 18.8873" fill="white"/>
</svg>
