<svg width="32" height="32" viewBox="0 0 32 32" fill="none" xmlns="http://www.w3.org/2000/svg">
<g clip-path="url(#clip0_136_40)">
<path fill-rule="evenodd" clip-rule="evenodd" d="M16.3309 33.2815L16.4327 33.3408L16.4735 33.3645C16.635 33.4534 16.8157 33.5 16.9993 33.5C17.1829 33.5 17.3636 33.4534 17.5251 33.3645L17.5658 33.3422L17.6691 33.2815C18.238 32.9379 18.7931 32.5711 19.3331 32.1821C20.731 31.1769 22.0371 30.0453 23.2356 28.8012C26.0633 25.8528 29 21.4228 29 15.7231C29 12.4814 27.7357 9.37236 25.4853 7.08007C23.2348 4.78779 20.1826 3.5 17 3.5C13.8174 3.5 10.7652 4.78779 8.51472 7.08007C6.26428 9.37236 5 12.4814 5 15.7231C5 21.4213 7.93818 25.8528 10.7644 28.8012C11.9624 30.0452 13.268 31.1768 14.6655 32.1821C15.2059 32.5712 15.7615 32.9379 16.3309 33.2815ZM17 20.1679C18.1573 20.1679 19.2672 19.6996 20.0856 18.8661C20.9039 18.0325 21.3636 16.902 21.3636 15.7231C21.3636 14.5443 20.9039 13.4138 20.0856 12.5802C19.2672 11.7466 18.1573 11.2784 17 11.2784C15.8427 11.2784 14.7328 11.7466 13.9144 12.5802C13.0961 13.4138 12.6364 14.5443 12.6364 15.7231C12.6364 16.902 13.0961 18.0325 13.9144 18.8661C14.7328 19.6996 15.8427 20.1679 17 20.1679Z" fill="white"/>
</g>
<defs>
<clipPath id="clip0_136_40">
<rect width="32" height="32" fill="white"/>
</clipPath>
</defs>
</svg>
