<svg width="32" height="32" viewBox="0 0 32 32" fill="none" xmlns="http://www.w3.org/2000/svg">
<path d="M6 29.5C4.61112 29.5 3.43056 29.0196 2.45834 28.0588C1.48612 27.098 1.00001 25.9314 1.00001 24.5588V11.3824C1.00001 10.9157 1.16001 10.5248 1.48001 10.2096C1.80001 9.89451 2.19556 9.73639 2.66667 9.73529H29.3333C29.8055 9.73529 30.2017 9.89341 30.5217 10.2096C30.8417 10.5259 31.0011 10.9168 31 11.3824V24.5588C31 25.9314 30.5139 27.098 29.5417 28.0588C28.5694 29.0196 27.3889 29.5 26 29.5H6ZM11 4.79412V3.14706C11 2.68039 11.16 2.28949 11.48 1.97435C11.8 1.65922 12.1956 1.5011 12.6667 1.5H19.3333C19.8056 1.5 20.2017 1.65812 20.5217 1.97435C20.8417 2.29059 21.0011 2.68149 21 3.14706V4.79412H29.3333C29.8055 4.79412 30.2017 4.95224 30.5217 5.26847C30.8417 5.58471 31.0011 5.97561 31 6.44118C30.9989 6.90675 30.8389 7.2982 30.52 7.61553C30.2011 7.93286 29.8055 8.09043 29.3333 8.08824H2.66667C2.19445 8.08824 1.79889 7.93012 1.48001 7.61388C1.16112 7.29765 1.00112 6.90675 1.00001 6.44118C0.998895 5.97561 1.15889 5.58471 1.48001 5.26847C1.80112 4.95224 2.19667 4.79412 2.66667 4.79412H11Z" fill="white"/>
</svg>
