<svg width="32" height="32" viewBox="0 0 32 32" fill="none" xmlns="http://www.w3.org/2000/svg">
<path d="M22.5 3.00982C24.7803 4.32635 26.6739 6.21992 27.9904 8.50021C29.3069 10.7805 30 13.3672 30 16.0002C30 18.6333 29.3069 21.2199 27.9903 23.5002C26.6738 25.7805 24.7802 27.674 22.4998 28.9905C20.2195 30.307 17.6328 31 14.9998 31C12.3667 31 9.78003 30.3068 7.49975 28.9903C5.21948 27.6737 3.32593 25.7801 2.00945 23.4998C0.69297 21.2195 -6.68845e-05 18.6328 4.84148e-09 15.9997L0.00750018 15.5137C0.0915048 12.9232 0.845322 10.3987 2.19546 8.18628C3.5456 5.97384 5.44598 4.14899 7.71134 2.88965C9.9767 1.6303 12.5297 0.979434 15.1215 1.0005C17.7133 1.02156 20.2554 1.71383 22.5 3.00982ZM15 6.99979C11.922 6.99979 9.348 9.17328 8.1765 12.2498H7.5C7.11768 12.2502 6.74995 12.3966 6.47195 12.659C6.19394 12.9215 6.02665 13.2802 6.00424 13.6618C5.98184 14.0435 6.10601 14.4193 6.3514 14.7125C6.59678 15.0057 6.94486 15.1941 7.3245 15.2392L7.5255 15.2497C7.48974 15.7491 7.48974 16.2504 7.5255 16.7497H7.5C7.10218 16.7497 6.72064 16.9078 6.43934 17.1891C6.15804 17.4704 6 17.8519 6 18.2497C6 18.6475 6.15804 19.0291 6.43934 19.3104C6.72064 19.5917 7.10218 19.7497 7.5 19.7497H8.178C9.348 22.8292 11.922 24.9997 15 24.9997C16.7115 24.9997 18.3255 24.3142 19.626 23.0947C19.9164 22.8226 20.0868 22.4462 20.0998 22.0485C20.1127 21.6507 19.9671 21.2641 19.695 20.9737C19.4229 20.6833 19.0466 20.5129 18.6488 20.4999C18.251 20.487 17.8644 20.6326 17.574 20.9047C16.8105 21.6217 15.921 21.9997 15 21.9997C13.617 21.9997 12.336 21.1327 11.4975 19.7512L13.5 19.7497C13.8978 19.7497 14.2794 19.5917 14.5607 19.3104C14.842 19.0291 15 18.6475 15 18.2497C15 17.8519 14.842 17.4704 14.5607 17.1891C14.2794 16.9078 13.8978 16.7497 13.5 16.7497H10.5345C10.4872 16.2508 10.4872 15.7486 10.5345 15.2497H13.5C13.8978 15.2497 14.2794 15.0917 14.5607 14.8104C14.842 14.5291 15 14.1476 15 13.7497C15 13.3519 14.842 12.9704 14.5607 12.6891C14.2794 12.4078 13.8978 12.2498 13.5 12.2498H11.496C12.336 10.8683 13.617 9.99977 15 9.99977C15.9225 9.99977 16.812 10.3778 17.5755 11.0948C17.8659 11.3669 18.2525 11.5125 18.6503 11.4995C19.0481 11.4866 19.4244 11.3162 19.6965 11.0258C19.9686 10.7354 20.1142 10.3487 20.1013 9.95098C20.0883 9.55322 19.9179 9.17689 19.6275 8.90478C18.327 7.68679 16.713 6.99979 15 6.99979Z" fill="white"/>
</svg>
