<?xml version="1.0" encoding="UTF-8"?>
<!-- Generated by Pixelmator Pro 3.7 -->
<svg width="208" height="92" viewBox="0 0 208 92" xmlns="http://www.w3.org/2000/svg">
    <path id="Path" fill="#3d8f7c" stroke="none" d="M 96.692802 -30.108093 L 95.586212 -29.161507 C 95.586212 -30.148087 95.586212 -30.748024 95.586212 -30.748024 Z"/>
    <text id="Appetit" xml:space="preserve" x="88" y="86" font-family="Helvetica" font-size="37.956444" fill="#ffffff">Appetit</text>
    <text id="Plan" xml:space="preserve" x="88" y="45" font-family="Helvetica" font-size="37.956444" fill="#ffffff">Plan</text>
    <path id="path1" fill="#f17c63" stroke="none" d="M 81.134239 51.350948 C 81.126305 59.957767 78.370499 68.337234 73.268318 75.268715 C 72.788345 75.921974 72.281715 76.601921 71.761787 77.188538 C 71.468483 77.548485 71.148521 77.90844 70.841873 78.268433 C 69.713844 79.538696 68.502365 80.732315 67.215538 81.841423 C 67.00222 82.028091 66.802254 82.214714 66.575584 82.388039 C 64.68644 83.980827 62.650906 85.391418 60.496159 86.600983 C 59.976231 86.907593 59.442955 87.187599 58.896336 87.454216 C 58.349712 87.720871 57.443142 88.174164 56.696548 88.494118 C 44.162647 93.91333 29.74367 92.665848 18.326811 85.174438 L 17.886829 84.881134 C 17.326878 84.50782 16.780258 84.121193 16.246969 83.721252 C 13.820886 81.894638 11.607266 79.801773 9.647612 77.481842 C 9.578282 77.41243 9.515788 77.33651 9.460943 77.25518 C 8.954317 76.668564 8.487727 76.068649 8.021095 75.442032 C 7.554464 74.81543 7.114523 74.188812 6.687887 73.535515 C -1.498561 61.083233 -2.191123 45.142834 4.884508 32.027443 C 11.960139 18.912094 25.662428 10.737564 40.564716 10.741432 C 41.444641 10.741432 42.311218 10.741432 43.231136 10.821419 L 43.511097 10.821419 C 55.722721 11.722214 66.869583 18.104431 73.828247 28.179779 C 74.934181 29.754097 75.923386 31.407265 76.787971 33.125973 C 79.521721 38.548561 80.993835 44.519154 81.094246 50.591011 C 81.094246 50.790985 81.094246 50.977654 81.094246 51.16428 C 81.111252 51.225677 81.124596 51.28801 81.134239 51.350948 Z"/>
    <path id="path2" fill="#f17c63" stroke="none" d="M 81.134239 51.510929 C 81.126633 60.939285 77.825676 70.068802 71.801781 77.321823 L 70.881866 78.401764 C 69.769539 79.651886 68.580688 80.831833 67.32222 81.934753 L 66.522285 82.628006 C 64.616135 84.221077 62.567703 85.63578 60.402866 86.854294 C 59.92289 87.134262 59.429611 87.387573 58.936329 87.640884 C 58.229729 88.000839 57.509785 88.347481 56.789841 88.667442 C 44.169971 94.179413 29.617176 92.924896 18.126797 85.334419 L 17.726851 85.054459 C 17.166885 84.68116 16.63361 84.307861 16.100336 83.894569 C 13.645528 82.04306 11.409165 79.918503 9.434294 77.561829 C 8.887673 76.908531 8.367743 76.228622 7.847772 75.548676 C 7.327842 74.868729 7.074529 74.482124 6.714537 73.922157 C 4.59474 65.736282 2.714911 57.017086 2.621577 54.070705 L 2.621577 54.070705 C 2.621577 53.950684 2.621577 53.844044 2.621577 53.75071 L 2.621577 53.75071 C 2.628616 53.661972 2.628616 53.57283 2.621577 53.484093 C 2.499152 51.002026 1.69161 48.602428 0.288462 46.551392 C 2.823178 26.256828 20.072456 11.025055 40.524723 11.021393 C 41.524632 11.021393 42.524536 11.021393 43.497753 11.128036 C 55.775043 12.018333 66.980621 18.445343 73.948227 28.593071 L 73.948227 28.593071 C 78.611732 35.327141 81.117844 43.319759 81.134239 51.510929 Z"/>
    <path id="path3" fill="#ef634f" stroke="none" d="M 9.434294 77.25518 C 9.914228 76.74855 10.434199 76.228622 10.98082 75.708649 C 10.514189 75.148727 10.060903 74.575417 9.647612 73.9888 C 10.660863 72.882256 11.874047 71.64238 13.207255 70.375824 L 13.207255 70.375824 C 14.738932 69.015434 16.360199 67.759369 18.060154 66.616165 C 24.539526 62.283234 27.512596 61.403355 27.512596 61.403355 C 30.418859 60.766411 33.377934 60.400436 36.351776 60.310112 L 36.351776 60.310112 L 36.698421 58.976902 L 36.925045 59.123539 C 36.925045 59.030243 36.925045 58.923565 36.99173 58.830231 L 37.751629 58.830231 L 37.751629 58.44363 C 37.796749 58.223598 37.827915 58.000961 37.844963 57.777023 C 37.851391 57.723888 37.851391 57.670143 37.844963 57.617004 C 37.844963 57.390381 37.911606 57.163719 37.92495 56.937096 C 37.931419 56.906296 37.931419 56.874519 37.92495 56.843761 C 37.92495 56.630444 37.92495 56.43047 37.92495 56.217152 L 37.92495 56.097168 C 37.917912 56.026253 37.917912 55.954765 37.92495 55.88385 L 37.37833 55.88385 C 37.418976 55.722 37.445747 55.556976 37.458321 55.390572 C 37.525005 54.97728 37.591648 54.537296 37.644989 54.057362 C 37.69833 53.577385 37.738323 53.190784 37.764973 52.724152 C 36.140125 52.709667 34.579803 52.086475 33.392052 50.977654 C 31.578865 49.097824 30.792278 44.778244 29.939045 41.39188 C 30.487375 40.571888 30.973127 39.711781 31.392239 38.818798 C 31.269283 38.345047 31.122446 37.877808 30.952255 37.418907 C 32.147011 35.814728 33.120102 34.056835 33.845337 32.192749 C 33.514313 32.297272 33.155621 32.268547 32.845428 32.112762 C 33.403973 30.786674 34.059021 29.503387 34.805248 28.273117 C 33.325405 29.966278 31.85887 28.93972 31.258909 26.939903 C 31.459045 25.775299 31.965181 24.68483 32.725445 23.780212 C 32.627434 22.180588 33.099842 20.598053 34.058655 19.31395 C 35.517666 18.465195 37.170464 18.006096 38.858212 17.980743 C 40.697479 17.897179 42.512413 18.427116 44.017723 19.487274 C 45.361671 18.792519 46.432495 17.665344 47.057438 16.287544 C 45.300846 14.977852 43.984768 13.164223 43.284435 11.088036 L 43.204445 10.86142 C 43.110134 10.559685 43.034416 10.252502 42.977821 9.941498 C 43.111191 8.449821 43.635433 7.019691 44.497658 5.795219 C 44.54636 4.060112 45.123089 2.381134 46.150864 0.982338 C 47.9907 -0.124229 50.483791 -0.204216 53.376831 1.448952 C 64.042496 7.528374 63.735886 13.607826 63.735886 13.607826 C 72.788345 14.141098 75.161453 24.686783 72.255066 24.833412 C 72.757462 25.906715 73.202492 27.005943 73.58828 28.126442 C 74.694168 29.700798 75.683418 31.35392 76.548004 33.072674 L 76.548004 33.312641 C 76.625633 35.301998 76.065056 37.264053 74.948135 38.912094 C 74.388206 46.791359 67.068909 48.07127 63.882519 39.8587 C 62.295998 42.285107 60.136208 42.365139 58.016411 40.885254 C 57.72237 41.266281 57.455105 41.667206 57.21648 42.085136 C 56.449093 44.824989 54.834377 47.251724 52.603588 49.017834 C 51.65633 49.750351 50.765057 50.552483 49.937172 51.417595 L 50.897083 57.81702 C 50.99762 57.791019 51.103161 57.791019 51.203697 57.81702 C 51.203697 58.083637 51.350368 58.75024 51.417015 59.283516 L 51.417015 59.283516 C 54.970963 59.69046 58.434299 60.676735 61.669388 62.203247 C 61.7803 62.271477 61.883156 62.351994 61.976044 62.443253 L 61.976044 62.443253 C 66.37561 65.322952 70.508568 71.242401 73.001663 75.295364 L 73.08165 75.415344 C 73.161636 75.535332 73.015007 75.295364 73.08165 75.415344 C 72.77504 75.775337 72.468384 76.308609 72.14843 76.668564 C 71.588463 77.308517 71.268509 77.828445 70.668549 78.428406"/>
    <path id="path4" fill="#3d8f7c" stroke="none" d="M 67.348869 81.934753 L 66.548935 82.628006 C 66.548935 81.908066 66.548935 81.468124 66.548935 81.468124 Z"/>
    <path id="path5" fill="#eda391" stroke="none" d="M 66.548935 82.628006 C 64.642784 84.221077 62.594391 85.63578 60.429516 86.854294 C 59.949539 87.134262 59.456261 87.387573 58.962978 87.640884 L 58.789654 87.294235 L 61.922703 74.442131 L 62.402679 72.482315 L 70.401932 77.641823 C 70.401932 77.641823 70.601906 77.90844 70.92186 78.401764 C 69.80954 79.651886 68.620682 80.831833 67.362213 81.934753 Z"/>
    <path id="path6" fill="#f48c7f" stroke="none" d="M 18.940077 84.0812 C 18.940077 84.0812 18.673418 84.561172 18.193483 85.334419 L 17.793495 85.054459 C 17.23357 84.68116 16.700296 84.307861 16.166979 83.894569 C 13.712173 82.04306 11.475809 79.918503 9.500937 77.561829 L 11.660769 76.228622 L 16.793589 81.788078 L 18.433451 83.574577 Z"/>
    <path id="path7" fill="#f2a96f" stroke="none" d="M 27.512596 61.390007 L 18.473444 83.521278 L 17.83349 85.054459 C 17.286869 84.68116 16.753595 84.307861 16.22032 83.907875 C 13.764942 82.052055 11.528539 79.923019 9.554277 77.561829 L 9.380954 77.361862 C 8.887673 76.775246 8.421041 76.161942 7.954411 75.548676 C 9.407643 73.9888 11.220788 72.162315 13.287245 70.375824 L 13.287245 70.375824 C 14.818921 69.015434 16.440187 67.759369 18.140142 66.616165 C 24.539526 62.269932 27.512596 61.390007 27.512596 61.390007 Z"/>
    <path id="path8" fill="#edc79e" stroke="none" d="M 61.922703 74.442131 C 61.63562 78.602142 61.137253 82.744858 60.429516 86.854294 C 59.949539 87.134262 59.456261 87.387573 58.962978 87.640884 C 58.256378 88.000839 57.549782 88.347481 56.816532 88.654099 C 44.200485 94.180069 29.642849 92.930099 18.153488 85.334419 L 17.740196 85.054459 C 17.193577 84.68116 16.660301 84.307861 16.126986 83.907875 C 16.327 83.161285 16.526972 82.441383 16.74029 81.734779 C 20.899895 67.669411 27.405958 61.390007 27.405958 61.390007 C 30.31218 60.753105 33.271252 60.387131 36.245094 60.296768 L 36.538403 60.296768 L 38.244907 60.296768 L 38.244907 60.296768 C 41.164639 60.296768 43.777756 60.376755 45.61755 60.496738 L 45.61755 60.496738 C 47.150772 60.60342 48.150677 60.71006 48.283966 60.71006 L 49.417202 60.843388 L 49.737198 60.843388 C 53.289314 61.237965 56.750214 62.22485 59.976231 63.763119 C 60.095806 63.818493 60.204277 63.895306 60.296188 63.989738 L 60.296188 63.989738 C 61.909359 65.296295 62.229355 69.375916 61.922703 74.442131 Z"/>
    <path id="path9" fill="#f2a96f" stroke="none" d="M 71.801781 77.321823 L 70.881866 78.401764 C 69.769539 79.651886 68.580688 80.831833 67.32222 81.934753 L 66.522285 82.628006 C 64.616135 84.221077 62.567703 85.63578 60.402866 86.854294 C 59.92289 87.134262 59.429611 87.387573 58.936329 87.640884 C 58.229729 88.000839 57.509785 88.347481 56.789841 88.667442 L 55.736637 87.334229 C 52.750221 71.749023 60.456165 63.923096 60.456165 63.923096 L 60.456165 63.923096 C 65.135742 66.976151 69.36203 73.268898 71.801781 77.321823 Z"/>
    <path id="path10" fill="#eda391" stroke="none" d="M 49.723854 61.589981 C 49.723854 61.589981 44.391022 64.256393 39.85812 63.549797 C 36.031818 62.923191 36.498409 60.883381 36.498409 60.883381 L 36.645081 60.296768 C 36.725071 59.990116 36.818405 59.576824 36.925045 59.096889 C 36.925045 59.003551 36.925045 58.896915 36.99173 58.803581 C 37.178356 57.937004 37.391674 56.883759 37.564999 55.763866 C 37.605644 55.602016 37.632416 55.436993 37.644989 55.270584 C 37.711632 54.857296 37.778316 54.417313 37.831615 53.937378 C 37.884956 53.457401 37.92495 53.070801 37.951599 52.604168 C 37.951599 52.4175 37.951599 52.230873 37.951599 52.044205 C 37.951599 51.857574 37.951599 51.684254 37.951599 51.497581 C 37.951599 51.097637 37.951599 50.724339 37.951599 50.364388 C 37.965313 50.164619 37.965313 49.964157 37.951599 49.764427 C 37.951599 49.6311 37.951599 49.484467 37.951599 49.351139 C 37.431671 46.098106 44.924294 47.431313 47.137424 47.884602 L 47.137424 47.884602 L 47.75069 48.004585 L 47.830681 48.604546 L 47.910667 49.137817 L 48.190674 50.96431 L 49.430546 59.27021 L 49.643864 60.696754 Z"/>
    <path id="path11" fill="#ef7358" stroke="none" d="M 47.870674 49.231152 C 47.767902 49.498787 47.643036 49.757431 47.497379 50.004395 C 47.300537 50.401737 47.049217 50.769665 46.750786 51.097637 C 44.354889 53.591583 41.098766 55.079037 37.644989 55.25724 C 37.778316 54.404007 37.884956 53.524086 37.951599 52.684158 C 37.951599 52.310863 37.951599 51.937565 38.018284 51.577572 C 38.053032 51.000397 38.053032 50.421635 38.018284 49.844418 C 38.018284 49.71109 38.018284 49.564457 38.018284 49.431126 C 37.498314 46.178093 44.990978 47.511303 47.204071 47.964588 L 47.204071 47.964588 L 47.817375 48.084572 L 47.897366 48.684532 Z"/>
    <path id="path12" fill="#eda391" stroke="none" d="M 47.804031 48.644539 L 47.737385 48.644539 C 47.565285 48.836578 47.382805 49.019054 47.190765 49.191158 L 47.190765 49.191158 C 44.649742 51.514507 41.299309 52.749378 37.858307 52.630817 L 37.858307 52.630817 C 36.233459 52.616375 34.6731 51.993183 33.485386 50.884319 C 31.672199 49.00449 30.885612 44.684906 30.032379 41.298546 C 29.805716 40.405319 29.579054 39.592041 29.325781 38.885445 C 30.815956 36.758972 32.029995 34.451859 32.938763 32.019424 C 33.497307 30.693382 34.152355 29.410049 34.898582 28.179779 L 34.898582 28.179779 C 35.074348 27.898193 35.265736 27.626694 35.471851 27.366547 L 35.471851 27.366547 C 35.705593 27.073601 35.964317 26.801491 36.245094 26.553268 L 36.245094 26.553268 L 36.67173 26.206619 C 41.297966 22.88694 46.190861 26.206619 48.27066 28.03315 L 48.27066 28.03315 C 48.632687 28.331215 48.975552 28.651825 49.297218 28.993019 C 49.433067 29.329002 49.514076 29.684601 49.537186 30.046265 L 49.537186 30.046265 C 50.217133 33.632599 51.137051 45.071548 47.804031 48.644539 Z"/>
    <path id="path13" fill="#180d0d" stroke="none" d="M 57.616425 37.37891 C 57.546524 37.906815 57.435043 38.428371 57.283123 38.938782 C 56.521881 41.681732 54.911762 44.113224 52.683578 45.884789 C 48.683952 49.017834 48.190674 50.844326 48.150677 51.057644 L 48.150677 51.057644 L 47.564064 50.097733 L 47.497379 49.991051 C 47.497379 49.91106 47.497379 49.831074 47.390739 49.737778 C 47.284058 49.644444 47.284058 49.391132 47.244064 49.231152 L 47.244064 49.231152 C 47.134129 48.818268 47.084736 48.391632 47.097431 47.964588 L 47.097431 47.964588 C 47.097431 47.537952 47.097431 47.071362 47.230759 46.378067 C 47.308064 45.464741 47.514545 44.566998 47.844025 43.711651 L 47.844025 43.711651 C 47.864899 43.642811 47.89167 43.57592 47.924015 43.511677 C 48.803936 41.605198 46.73748 40.13866 45.40427 38.672123 C 45.18021 38.440052 44.975155 38.190399 44.790966 37.925529 C 40.698048 31.766113 43.644428 28.993019 41.631268 29.033051 C 40.298061 29.033051 38.00494 25.686691 36.298435 26.539917 L 36.298435 26.539917 C 35.985027 26.716133 35.730087 26.980347 35.565186 27.299858 L 35.565186 27.299858 L 35.565186 27.299858 C 35.399837 27.588242 35.20792 27.860474 34.991917 28.113136 L 34.991917 28.113136 C 33.512035 29.806297 32.045498 28.779739 31.445578 26.77993 C 30.591858 23.8862 31.755199 20.776749 34.298622 19.153976 C 35.757633 18.305222 37.410473 17.846115 39.098183 17.820763 C 40.937447 17.737198 42.75238 18.267136 44.25769 19.327255 C 45.653961 20.354263 46.905148 21.565086 47.977352 22.926933 C 48.967781 23.050179 49.92643 23.357643 50.803749 23.833511 C 53.006546 25.18222 54.806831 27.09761 56.016598 29.379662 C 57.481792 31.771935 58.04884 34.607159 57.616425 37.37891 Z"/>
    <path id="path14" fill="#eda391" stroke="none" d="M 45.004284 40.711933 C 45.004284 42.605106 45.817562 44.138287 46.897457 44.164936 C 47.977352 44.191628 48.883926 42.671749 48.910576 40.778618 C 48.937267 38.885445 48.097336 37.352261 47.017441 37.325573 C 45.937546 37.298923 45.030975 38.845448 45.004284 40.711933 Z"/>
    <path id="path15" fill="#f2a96f" stroke="none" d="M 49.990513 61.576637 C 47.204071 63.683128 41.231323 64.309738 38.724884 63.456463 C 36.551746 62.723217 36.165108 61.030056 36.325127 60.403446 C 36.325127 60.403446 36.325127 60.336761 36.325127 60.296768 L 36.325127 60.296768 L 36.67173 58.963558 L 36.898396 59.110233 C 37.338337 59.403542 37.751629 59.870132 38.338242 60.270119 C 39.422695 60.987415 40.727341 61.29464 42.01791 61.136696 C 43.268688 61.042995 44.506325 60.819626 45.710884 60.470089 L 45.710884 60.470089 C 47.337399 60.016804 48.697296 59.510178 49.350555 59.390194 C 49.452435 59.378395 49.555332 59.378395 49.657211 59.390194 C 49.75856 59.879162 49.834236 60.373135 49.883831 60.870037 C 49.963821 61.243332 49.990513 61.576637 49.990513 61.576637 Z"/>
    <path id="path16" fill="#f2a96f" stroke="none" d="M 66.988922 29.512993 C 63.672619 31.842766 60.682056 34.604675 58.096401 37.725559 C 57.802402 38.106586 57.535091 38.507507 57.296467 38.925438 L 57.296467 38.925438 C 54.349113 36.349628 51.781605 33.369156 49.670513 30.072952 C 49.243877 29.419655 48.81728 28.739746 48.403992 28.046455 L 48.403992 28.046455 C 46.769581 25.315346 45.386246 22.441628 44.271034 19.460587 C 45.614986 18.765869 46.685806 17.638695 47.310749 16.260895 C 47.918724 15.030296 48.311024 13.704536 48.470634 12.341255 C 48.470634 12.341255 56.856525 19.580574 66.988922 29.512993 Z"/>
    <path id="path17" fill="#edc79e" stroke="none" d="M 63.975857 36.712307 C 62.375988 39.138756 60.216198 39.218746 58.096401 37.738903 L 57.616425 37.37891 C 54.736729 35.045795 51.976978 29.939629 50.803749 24.046829 C 50.405472 22.054054 50.208958 20.026245 50.217133 17.994049 C 49.178169 17.568146 48.19714 17.012695 47.297405 16.340881 C 45.540813 15.031189 44.224735 13.21756 43.524441 11.14138 L 43.444454 10.914719 C 43.350101 10.613029 43.274384 10.305801 43.217789 9.994797 C 42.444546 6.328499 43.737762 2.622177 46.390831 1.03566 C 48.230667 -0.070908 50.723759 -0.150902 53.616798 1.502289 C 64.282463 7.581718 63.975857 13.661125 63.975857 13.661125 C 73.028351 14.194435 75.401459 24.74012 72.495033 24.886757 C 72.997429 25.96006 73.442459 27.05928 73.828247 28.179779 C 73.828247 28.326416 73.934921 28.473091 73.974915 28.606415 C 78.467827 42.405132 67.948792 47.018024 63.975857 36.712307 Z"/>
    <path id="path18" fill="#eda391" stroke="none" d="M 2.674917 54.057362 C 2.674917 53.937378 2.674917 53.8307 2.674917 53.737404 C 2.68106 53.843964 2.68106 53.950806 2.674917 54.057362 Z"/>
    <path id="path19" fill="#f2a96f" stroke="none" d="M 38.814728 66.789925 C 39.379417 66.894684 39.671684 67.871696 39.467541 68.972076 C 39.26339 70.072495 38.640129 70.879654 38.075436 70.774895 C 37.510746 70.670135 37.218483 69.69313 37.42263 68.592705 C 37.626774 67.492325 38.250034 66.685165 38.814728 66.789925 Z"/>
    <path id="path20" fill="#f2a96f" stroke="none" d="M 37.456203 74.153793 C 38.020893 74.258553 38.31316 75.235558 38.109009 76.335976 C 37.904858 77.436401 37.281605 78.243515 36.716911 78.138756 C 36.152222 78.033997 35.859951 77.05703 36.064098 75.956604 C 36.26825 74.856186 36.89151 74.049026 37.456203 74.153793 Z"/>
    <path id="path21" fill="#f2a96f" stroke="none" d="M 36.082123 81.541672 C 36.646816 81.646431 36.939079 82.623436 36.734928 83.723862 C 36.530777 84.82428 35.907524 85.631401 35.342831 85.526642 C 34.778141 85.421875 34.48587 84.444908 34.690018 83.34449 C 34.894169 82.244064 35.517429 81.436905 36.082123 81.541672 Z"/>
</svg>
