<?xml version="1.0" encoding="UTF-8"?>
<!-- Generated by Pixelmator Pro 3.7 -->
<svg width="218" height="96" viewBox="0 0 218 96" xmlns="http://www.w3.org/2000/svg">
    <text id="Appetit" xml:space="preserve" x="94" y="88" font-family="Helvetica" font-size="39.693974" fill="#2f2e6e">Appetit</text>
    <text id="Plan" xml:space="preserve" x="94" y="45" font-family="Helvetica" font-size="39.693974" fill="#2f2e6e">Plan</text>
    <path id="Path" fill="#2f2e6e" stroke="none" d="M 84.788033 53.485546 C 84.779289 62.480564 81.902046 71.238358 76.574562 78.485947 C 76.067886 79.16597 75.547897 79.819305 75.001213 80.485985 C 74.694527 80.872665 74.361191 81.246002 74.041199 81.605995 C 72.859863 82.934097 71.595032 84.185547 70.254478 85.35276 L 69.587799 85.926094 C 67.604736 87.581512 65.476036 89.054199 63.227669 90.326149 C 62.68103 90.632835 62.121002 90.939484 61.560974 91.219513 C 61.000988 91.499504 60.040974 91.966187 59.267605 92.29953 C 46.169209 97.962502 31.100441 96.654579 19.173655 88.81945 L 18.706972 88.512802 C 18.133638 88.126122 17.560266 87.726128 17.000278 87.299446 C 14.466994 85.394386 12.154783 83.211899 10.106817 80.792671 L 9.906821 80.552673 C 9.386834 79.939301 8.893459 79.312622 8.413471 78.672638 C 7.933442 78.032616 7.453454 77.339287 7.080116 76.672607 C -1.476053 63.661003 -2.20047 47.003223 5.193855 33.297966 C 12.58814 19.592751 26.907991 11.051674 42.480671 11.058228 C 43.387383 11.058228 44.294056 11.058228 45.147381 11.151527 L 45.44072 11.151527 C 58.201057 12.050636 69.868279 18.678383 77.174591 29.178513 C 78.332932 30.828323 79.36689 32.561989 80.267944 34.365242 C 83.131844 40.025734 84.672836 46.262653 84.774689 52.605526 C 84.774689 52.805565 84.774689 53.005558 84.774689 53.205555 C 84.786812 53.29837 84.79129 53.391998 84.788033 53.485546 Z"/>
    <path id="path1" fill="#2f2e6e" stroke="none" d="M 84.788033 53.65889 C 84.799385 63.505119 81.370705 73.045959 75.094559 80.632675 L 74.121193 81.752686 C 72.963341 83.059433 71.725403 84.292969 70.414474 85.44606 L 69.574455 86.166084 C 67.589027 87.834778 65.450645 89.312462 63.187672 90.579491 C 62.68103 90.872826 62.174347 91.152824 61.65432 91.406158 C 60.92099 91.779503 60.174316 92.139534 59.414295 92.47287 C 46.244934 98.228012 31.056374 96.917931 19.066963 88.99279 L 18.64032 88.712799 L 16.946934 87.499443 C 14.377231 85.548767 12.037716 83.312119 9.973514 80.832672 C 9.400141 80.139336 8.840154 79.499313 8.30682 78.725983 C 7.773446 77.952614 7.506799 77.605934 7.120115 77.019295 C 4.906741 68.472488 3.0134 59.352341 2.853363 56.285599 L 2.853363 56.285599 C 2.847219 56.17012 2.847219 56.054394 2.853363 55.938915 L 2.853363 55.938915 C 2.853363 55.845612 2.853363 55.752266 2.853363 55.65892 C 2.718107 53.067692 1.874059 50.563339 0.413342 48.418816 C 3.062554 27.214981 21.085346 11.301437 42.454018 11.298218 C 43.494034 11.298218 44.53405 11.298218 45.547413 11.418221 C 58.372978 12.347473 70.07975 19.059494 77.361237 29.658501 L 77.361237 29.658501 C 82.21833 36.718025 84.808952 45.089943 84.788033 53.65889 Z"/>
    <path id="path2" fill="#19193c" stroke="none" d="M 9.84017 80.499329 C 10.346851 79.965996 10.893492 79.432663 11.453518 78.885979 C 10.973502 78.299304 10.506834 77.699293 10.053512 77.085945 C 11.106833 75.93924 12.373536 74.645882 13.773542 73.325874 L 13.773542 73.325874 C 15.376473 71.907555 17.068884 70.593735 18.840315 69.392502 C 25.613741 64.872406 28.707134 63.952389 28.707134 63.952389 C 31.746244 63.291897 34.838905 62.908104 37.947273 62.805725 L 37.947273 62.805725 C 38.267265 61.47237 38.307304 61.392372 38.307304 61.392372 L 38.547298 61.539021 C 38.547298 61.445679 38.547298 61.339027 38.547298 61.232334 L 39.347321 61.232334 L 39.347321 60.832344 C 39.347321 60.605656 39.413971 60.365662 39.440624 60.125668 C 39.440624 60.125668 39.440624 60.01902 39.440624 59.965672 L 39.520622 59.258995 C 39.527134 59.228195 39.527134 59.196415 39.520622 59.165653 C 39.520622 58.938965 39.520622 58.725662 39.587315 58.498974 L 39.587315 58.378979 C 39.580883 58.303535 39.580883 58.22773 39.587315 58.15229 L 39.027287 58.15229 L 39.107285 57.632301 C 39.173977 57.192272 39.240627 56.725632 39.293976 56.298946 C 39.347321 55.872265 39.387318 55.392277 39.427319 54.965591 C 37.726852 54.956028 36.093037 54.303432 34.853878 53.138901 C 32.960537 51.165524 32.187168 46.658775 31.253845 43.125393 C 31.821238 42.272514 32.32914 41.381512 32.773849 40.458683 C 32.627201 39.938656 32.467205 39.44532 32.307209 39.005333 C 33.550026 37.322769 34.567539 35.484932 35.333908 33.538567 C 34.984619 33.639893 34.610508 33.611488 34.280548 33.458572 C 34.859291 32.07354 35.545826 30.736076 36.333923 29.458504 C 34.787228 31.218544 33.25388 30.15184 32.627201 28.125153 C 32.831753 26.905121 33.361465 25.762772 34.160549 24.81842 C 34.075344 23.141716 34.585403 21.488853 35.600555 20.151672 C 37.1278 19.255219 38.857079 18.759804 40.627331 18.71167 C 42.531086 18.640953 44.405224 19.198532 45.960747 20.298363 C 47.368649 19.572281 48.491184 18.393387 49.147446 16.95163 C 47.2939 15.590935 45.898655 13.698082 45.147381 11.524864 C 45.147381 11.431564 45.147381 11.364868 45.067383 11.284874 C 44.978488 10.964882 44.89849 10.644877 44.827389 10.32486 C 44.970539 8.771118 45.517506 7.281837 46.414085 6.004799 C 46.472843 4.184784 47.076733 2.424301 48.14743 0.95137 C 50.067463 -0.19529 52.667522 -0.275291 55.694221 1.44471 C 66.854393 7.80484 66.507751 14.151581 66.507751 14.151581 C 75.974579 14.711609 78.507942 25.725128 75.414551 25.885124 C 75.92347 27.001236 76.368629 28.145294 76.74791 29.311813 C 77.90625 30.961624 78.940201 32.695335 79.841301 34.498589 C 79.848259 34.582901 79.848259 34.667618 79.841301 34.75193 C 79.921745 36.828377 79.332787 38.875732 78.161263 40.59203 C 77.574577 48.818806 69.921135 50.152161 66.614403 41.578697 C 64.947708 44.112064 62.694336 44.245407 60.467655 42.645367 C 60.160969 43.072048 59.880978 43.498734 59.627636 43.978722 C 58.827332 46.836189 57.147942 49.369228 54.827549 51.218868 C 53.832092 51.987396 52.891972 52.825012 52.014191 53.725582 L 53.014206 60.392357 C 53.11927 60.366356 53.229095 60.366356 53.334198 60.392357 C 53.442516 60.89806 53.518242 61.410236 53.560848 61.925705 L 53.560848 61.925705 C 57.259758 62.352104 60.863415 63.383656 64.227684 64.979065 C 64.350365 65.047134 64.462631 65.132462 64.561028 65.232399 L 64.561028 65.232399 C 69.147766 68.232452 73.481171 74.419235 76.08123 78.659294 L 76.161224 78.779289 C 76.241226 78.912636 76.08123 78.659294 76.161224 78.779289 C 75.841232 79.16597 75.521202 79.712654 75.187866 80.11264 C 74.601181 80.77932 74.254539 81.326004 73.627861 81.952682"/>
    <path id="path3" fill="#3d8f7c" stroke="none" d="M 70.347816 85.44606 L 69.507797 86.166084 C 69.507797 85.419411 69.507797 84.952728 69.507797 84.952728 Z"/>
    <path id="path4" fill="#eda391" stroke="none" d="M 69.507797 86.166084 C 67.522377 87.834778 65.383995 89.312462 63.121017 90.579491 C 62.614338 90.872826 62.107655 91.152824 61.587669 91.406158 C 61.46767 91.179512 61.414326 91.046173 61.414326 91.046173 L 64.681061 77.619278 L 65.1744 75.579247 L 73.521172 80.912666 C 73.521172 80.912666 73.721207 81.192657 74.054543 81.699341 C 72.89669 83.006126 71.658714 84.239624 70.347816 85.392761 Z"/>
    <path id="path5" fill="#f48c7f" stroke="none" d="M 19.77364 87.686134 C 19.77364 87.686134 19.493647 88.179466 19.000311 89.019485 L 18.573627 88.739456 L 16.880281 87.526093 C 14.310538 85.575424 11.971024 83.338814 9.906821 80.859322 L 12.160194 79.392662 L 17.493614 85.20607 L 19.200306 87.072762 Z"/>
    <path id="path6" fill="#f4ba41" stroke="none" d="M 28.787132 63.979042 L 19.226959 87.166107 L 18.573627 88.779449 C 18.000296 88.379463 17.440268 87.992775 16.880281 87.566093 C 14.307813 85.618637 11.967972 83.38166 9.906821 80.899323 L 9.733479 80.68602 C 9.213491 80.072647 8.720157 79.445969 8.240129 78.792633 C 9.760172 77.179291 11.653513 75.259254 13.773542 73.459213 L 13.773542 73.459213 C 15.376473 72.040901 17.068884 70.727081 18.840315 69.525803 C 25.627087 64.899063 28.787132 63.979042 28.787132 63.979042 Z"/>
    <path id="path7" fill="#f4cf77" stroke="none" d="M 64.681061 77.619278 C 64.441025 81.619339 63.841042 86.219437 63.121017 90.579491 C 62.614338 90.872826 62.107655 91.139519 61.587669 91.406158 C 60.854298 91.779503 60.107624 92.139534 59.347641 92.47287 C 46.178242 98.228012 30.989723 96.917931 19.000311 88.99279 L 18.573627 88.712799 C 18.000296 88.312767 17.440268 87.926125 16.880281 87.499443 C 17.080276 86.726112 17.293619 85.966095 17.520267 85.232727 C 21.867016 70.565819 28.72048 63.979042 28.72048 63.979042 C 31.75955 63.318592 34.852253 62.934795 37.960621 62.832378 L 38.267265 62.832378 L 40.053997 62.832378 L 40.053997 62.832378 C 43.107349 62.832378 45.840752 62.912376 47.77409 63.045719 L 47.77409 63.045719 C 49.387482 63.165718 50.4408 63.25906 50.627491 63.25906 C 50.81414 63.25906 51.067478 63.25906 51.814156 63.405712 L 52.13419 63.405712 C 55.835381 63.820473 59.440945 64.852554 62.801025 66.459106 C 62.922489 66.523636 63.034592 66.604416 63.134365 66.699097 L 63.134365 66.699097 C 64.667717 68.059143 64.987709 72.325859 64.681061 77.619278 Z"/>
    <path id="path8" fill="#f4ba41" stroke="none" d="M 75.02787 80.632675 L 74.054543 81.752686 C 72.89669 83.059433 71.658714 84.292969 70.347816 85.44606 L 69.507797 86.166084 C 67.522377 87.834778 65.383995 89.312462 63.121017 90.579491 C 62.614338 90.872826 62.107655 91.152824 61.587669 91.406158 C 60.854298 91.779503 60.107624 92.139534 59.347641 92.47287 C 59.000957 92.059532 58.627621 91.619507 58.25428 91.139519 C 55.120892 74.859222 63.174366 66.685791 63.174366 66.685791 L 63.174366 66.685791 C 67.974449 69.832489 72.454506 76.392616 75.02787 80.632675 Z"/>
    <path id="path9" fill="#8f89c0" stroke="none" d="M 51.934151 64.192383 C 51.934151 64.192383 46.414085 67.019135 41.627346 66.232414 C 37.627281 65.579086 38.120617 63.445709 38.120617 63.445709 L 38.267265 62.819031 C 38.347305 62.512386 38.453953 62.072357 38.573952 61.565674 C 38.573952 61.47237 38.573952 61.365681 38.573952 61.259029 C 38.773945 60.365662 38.987289 59.258995 39.187283 58.098984 L 39.267281 57.578957 C 39.333973 57.138966 39.400623 56.672283 39.453972 56.245602 C 39.507317 55.818916 39.547314 55.338928 39.587315 54.912247 L 39.587315 54.325565 C 39.587315 54.125572 39.587315 53.952229 39.587315 53.752235 C 39.587315 53.338898 39.587315 52.938866 39.587315 52.565529 L 39.587315 51.952198 C 39.587315 51.805546 39.587315 51.645512 39.587315 51.512207 C 39.040634 48.112129 46.880768 49.498829 49.20079 49.978817 L 49.20079 49.978817 L 49.827469 50.11216 L 49.920815 50.738838 L 50.000813 51.285519 L 50.294151 53.192207 L 51.627506 61.87236 L 51.854153 63.365711 Z"/>
    <path id="path10" fill="#2f2e6e" stroke="none" d="M 50.000813 51.272175 C 49.890701 51.551842 49.761509 51.823616 49.614128 52.085541 C 49.399078 52.498062 49.134914 52.88308 48.827454 53.232204 C 46.321796 55.830597 42.925056 57.383682 39.320625 57.578957 C 39.453972 56.685631 39.573967 55.765614 39.640659 54.912247 C 39.640659 54.512257 39.640659 54.125572 39.70731 53.752235 C 39.742062 53.152737 39.742062 52.551693 39.70731 51.952198 C 39.70731 51.805546 39.70731 51.645512 39.70731 51.512207 C 39.160629 48.112129 47.000763 49.498829 49.320789 49.978817 L 49.320789 49.978817 L 49.947468 50.11216 L 50.04081 50.738838 Z"/>
    <path id="path11" fill="#8f89c0" stroke="none" d="M 49.974159 50.65884 L 49.974159 50.725533 C 49.793087 50.922192 49.601677 51.109123 49.400787 51.285519 L 49.400787 51.285519 C 46.750679 53.691238 43.27166 54.976784 39.693966 54.872246 L 39.693966 54.872246 C 37.993538 54.862686 36.35968 54.210087 35.120567 53.045559 C 33.227184 51.072178 32.453857 46.565434 31.520493 43.032051 C 31.280499 42.098724 31.040504 41.245358 30.773817 40.512032 C 32.335365 38.293365 33.603657 35.882278 34.547234 33.338577 C 35.125938 31.953545 35.812511 30.616081 36.600571 29.338509 L 36.600571 29.338509 C 36.800606 29.045174 37.000603 28.765175 37.213943 28.498489 L 37.213943 28.498489 C 37.460854 28.187775 37.732872 27.897934 38.027271 27.631821 L 38.027271 27.631821 L 38.4673 27.271782 C 43.307384 23.791748 48.414116 27.271782 50.58749 29.165169 L 50.58749 29.165169 C 50.961441 29.48304 51.317524 29.82135 51.65416 30.178528 C 51.799545 30.526108 51.885201 30.895744 51.907501 31.271851 L 51.907501 31.271851 C 52.454182 34.99192 53.414196 46.93877 49.974159 50.65884 Z"/>
    <path id="path12" fill="#180d0d" stroke="none" d="M 60.174316 38.89864 C 60.103027 39.448292 59.991615 39.991962 59.840977 40.525337 C 59.041283 43.390129 57.356564 45.928867 55.027546 47.77879 C 50.827484 51.058872 50.334152 52.965561 50.294151 53.178902 L 50.294151 53.178902 L 49.694126 52.178886 L 49.627476 52.058887 C 49.57946 51.973804 49.539299 51.884529 49.507477 51.792202 C 49.507477 51.592205 49.400787 51.432209 49.360786 51.272175 L 49.360786 51.272175 C 49.249214 50.836903 49.199856 50.387962 49.214138 49.93882 L 49.214138 49.93882 C 49.214138 49.485481 49.280788 49.005493 49.347481 48.285473 C 49.430695 47.34869 49.646152 46.428425 49.987465 45.552109 L 49.987465 45.552109 C 50.012856 45.474308 50.044025 45.398544 50.080811 45.32542 C 51.000828 43.338737 48.840801 41.805386 47.414101 40.271996 C 47.181961 40.029152 46.97224 39.765884 46.787422 39.485321 C 42.507362 33.071884 45.574062 30.15184 43.480686 30.15184 C 42.067333 30.15184 39.693966 26.658455 37.960621 27.48513 L 37.960621 27.48513 C 37.630497 27.670883 37.361732 27.948921 37.187252 28.285149 L 37.187252 28.351837 L 37.187252 28.351837 C 37.008739 28.649857 36.803455 28.93103 36.573917 29.191818 L 36.573917 29.191818 C 35.027222 30.951859 33.493874 29.885193 32.867195 27.858467 C 31.954256 24.826797 33.169201 21.557869 35.840591 19.858337 C 37.367794 18.961876 39.097073 18.466469 40.867325 18.418327 C 42.77108 18.34761 44.645218 18.905197 46.200741 20.005028 C 47.66687 21.071487 48.977238 22.337013 50.094158 23.765099 C 51.128151 23.888145 52.128654 24.209564 53.040859 24.711769 C 55.349167 26.117065 57.233715 28.121407 58.494274 30.511871 C 60.042355 33.015366 60.638638 35.99202 60.174316 38.89864 Z"/>
    <path id="path13" fill="#8f89c0" stroke="none" d="M 47.000763 42.378719 C 47.000763 44.3521 47.854088 45.965446 48.98745 45.978752 C 50.120808 45.9921 51.054173 44.418751 51.080826 42.44537 C 51.107479 40.472031 50.227459 38.858643 49.107445 38.845337 C 47.987434 38.831989 47.040764 40.405338 47.000763 42.378719 Z"/>
    <path id="path14" fill="#f4ba41" stroke="none" d="M 52.214188 64.165733 C 49.307484 66.379105 43.054043 67.03244 40.453987 66.139114 C 38.173962 65.365738 37.787277 63.5924 37.933926 62.952374 C 37.940193 62.912621 37.940193 62.872131 37.933926 62.832378 L 37.933926 62.832378 C 38.25396 61.499023 38.293957 61.419025 38.293957 61.419025 L 38.533951 61.565674 C 38.973984 61.885708 39.413971 62.365696 40.013996 62.779034 C 41.149593 63.530266 42.515949 63.851761 43.867371 63.685745 C 45.17688 63.589592 46.472801 63.357246 47.734093 62.992374 L 47.734093 62.992374 C 49.454132 62.525692 50.854137 61.979012 51.547508 61.859013 C 51.653793 61.846195 51.761215 61.846195 51.8675 61.859013 C 51.975697 62.369274 52.051384 62.885887 52.094189 63.405712 C 52.187492 63.819046 52.214188 64.165733 52.214188 64.165733 Z"/>
    <path id="path15" fill="#f4ba41" stroke="none" d="M 69.97448 30.698517 C 66.492737 33.124664 63.353405 36.008377 60.640999 39.27198 C 60.338177 39.674046 60.057735 40.092468 59.80098 40.525337 L 59.80098 40.525337 C 56.700058 37.844711 54.005188 34.727638 51.80085 31.271851 C 51.360821 30.605171 50.907482 29.938492 50.467495 29.151817 L 50.467495 29.151817 C 48.765442 26.298668 47.319778 23.300201 46.147396 20.191673 C 47.55534 19.46563 48.677834 18.286736 49.334133 16.844978 C 49.970661 15.561272 50.376793 14.175751 50.534145 12.751572 C 50.534145 12.751572 59.454292 20.298363 69.97448 30.698517 Z"/>
    <path id="path16" fill="#f4cf77" stroke="none" d="M 66.8144 38.191963 C 65.147705 40.738678 62.894329 40.858673 60.680996 39.27198 L 60.174316 38.89864 C 57.160923 36.458618 54.280869 31.111855 53.054207 24.898415 C 52.645184 22.816841 52.44421 20.699699 52.454182 18.578323 C 51.364849 18.136833 50.338261 17.554062 49.400787 16.844978 C 47.547241 15.484283 46.151997 13.591393 45.400723 11.418221 C 45.400723 11.324875 45.400723 11.258224 45.320724 11.178223 C 45.231827 10.858205 45.151829 10.5382 45.08073 10.218208 C 44.280708 6.391487 45.627411 2.511414 48.400768 0.88472 C 50.320805 -0.261986 52.920864 -0.34198 55.947563 1.378059 C 67.107735 7.738144 66.761093 14.08493 66.761093 14.08493 C 76.227882 14.644913 78.761284 25.65844 75.667892 25.818436 C 76.176811 26.93454 76.621971 28.078644 77.001251 29.245163 C 77.001251 29.405159 77.121246 29.551849 77.161247 29.698502 C 81.947983 44.138756 70.974495 48.965496 66.8144 38.191963 Z"/>
    <path id="path17" fill="#eda391" stroke="none" d="M 2.786712 56.3256 C 2.780567 56.210117 2.780567 56.094395 2.786712 55.978912 C 2.773365 56.112259 2.786712 56.218948 2.786712 56.3256 Z"/>
    <path id="path18" fill="#f4ba41" stroke="none" d="M 40.554207 69.602097 C 41.140644 69.710899 41.44297 70.73233 41.229393 71.883568 C 41.015816 73.034798 40.367229 73.879822 39.780788 73.771027 C 39.194309 73.662224 38.891987 72.640785 39.105564 71.489555 C 39.319138 70.338318 39.967728 69.493301 40.554207 69.602097 Z"/>
    <path id="path19" fill="#f4ba41" stroke="none" d="M 39.122223 77.330467 C 39.708664 77.439262 40.010979 78.460739 39.797413 79.611931 C 39.583836 80.763168 38.935238 81.608231 38.348801 81.499428 C 37.762321 81.390625 37.460007 80.369156 37.67358 79.217918 C 37.88715 78.066727 38.535748 77.221664 39.122223 77.330467 Z"/>
    <path id="path20" fill="#f4ba41" stroke="none" d="M 37.692669 85.032417 C 38.27911 85.141212 38.581425 86.162689 38.367855 87.313881 C 38.154282 88.465111 37.505692 89.310135 36.919254 89.20134 C 36.332775 89.092537 36.030491 88.071106 36.244068 86.919876 C 36.457634 85.768684 37.10619 84.923615 37.692669 85.032417 Z"/>
</svg>
