<?xml version="1.0" encoding="UTF-8"?>
<!-- Generated by Pixelmator Pro 3.7 -->
<svg width="189" height="73" viewBox="0 0 189 73" xmlns="http://www.w3.org/2000/svg">
    <g id="Group">
        <path id="Path" fill="#ffffff" stroke="none" d="M 81.900002 11.400002 C 83.5 11.400002 84.900002 11.599998 86.099998 11.900002 C 87.300003 12.200001 88.300003 12.700001 89.099998 13.400002 C 89.900002 14 90.5 14.799999 90.800003 15.700001 C 91.099998 16.599998 91.400002 17.599998 91.400002 18.599998 C 91.400002 19.599998 91.199997 20.599998 90.800003 21.5 C 90.400002 22.400002 89.900002 23.099998 89.199997 23.799999 C 88.5 24.400002 87.699997 24.900002 86.699997 25.299999 C 85.699997 25.599998 84.599998 25.799999 83.300003 25.799999 C 83 25.799999 82.699997 25.799999 82.400002 25.799999 C 82.099998 25.799999 81.800003 25.799999 81.5 25.799999 C 81.199997 25.799999 80.900002 25.799999 80.599998 25.700001 L 80.599998 32.399998 L 72.900002 32.399998 L 72.900002 11.400002 C 73.699997 11.400002 74.599998 11.400002 75.599998 11.400002 C 76.400002 11.400002 77.400002 11.400002 78.5 11.400002 C 79.599998 11.400002 80.699997 11.400002 81.900002 11.400002 Z M 81.900002 20 C 82.400002 20 82.800003 19.799999 83.199997 19.5 C 83.599998 19.200001 83.699997 18.799999 83.699997 18.400002 C 83.699997 18 83.5 17.599998 83.199997 17.299999 C 82.900002 17 82.400002 16.799999 81.900002 16.799999 L 80.699997 16.799999 L 80.699997 19.900002 L 81.900002 19.900002 L 81.900002 20 Z"/>
        <path id="path1" fill="#ffffff" stroke="none" d="M 93.800003 10.199997 L 100.900002 10.199997 L 100.900002 32.200001 L 93.800003 32.200001 L 93.800003 10.199997 Z"/>
        <path id="path2" fill="#ffffff" stroke="none" d="M 110.900002 16.400002 C 112.199997 16.400002 113.300003 16.599998 114.400002 17 C 115.5 17.400002 116.400002 18 117.199997 18.700001 C 118 19.400002 118.599998 20.299999 119 21.299999 C 119.400002 22.299999 119.699997 23.299999 119.699997 24.5 L 119.699997 32.200001 L 112.900002 32.200001 L 112.300003 30.299999 C 112 30.700001 111.699997 31 111.400002 31.299999 C 111.099998 31.5 110.699997 31.799999 110.199997 31.900002 C 109.699997 32.099998 109.099998 32.200001 108.5 32.200001 C 107.699997 32.200001 106.900002 32.099998 106.300003 31.799999 C 105.599998 31.599998 105.099998 31.200001 104.599998 30.799999 C 104.099998 30.400002 103.800003 29.799999 103.5 29.299999 C 103.300003 28.700001 103.099998 28 103.099998 27.299999 C 103.099998 26.599998 103.199997 25.900002 103.5 25.299999 C 103.800003 24.700001 104.199997 24.200001 104.800003 23.799999 C 105.400002 23.400002 106.099998 23 107 22.799999 C 107.900002 22.599998 109 22.400002 110.300003 22.400002 L 112.699997 22.400002 C 112.599998 22.299999 112.5 22.099998 112.300003 22 C 112.099998 21.900002 111.800003 21.799999 111.5 21.700001 C 111.199997 21.599998 110.699997 21.599998 110.099998 21.599998 C 109.699997 21.599998 109.400002 21.599998 109 21.700001 C 108.599998 21.799999 108.400002 21.799999 108.199997 21.900002 C 107.900002 22 107.699997 22.099998 107.400002 22.200001 L 104.900002 18.799999 C 105.300003 18.400002 105.900002 18 106.5 17.599998 C 107 17.299999 107.699997 17 108.5 16.799999 C 109 16.5 109.900002 16.400002 110.900002 16.400002 Z M 111 27.599998 C 111.400002 27.599998 111.699997 27.400002 112 27 C 112.300003 26.599998 112.5 25.900002 112.5 24.900002 C 111.699997 24.900002 111.099998 25.099998 110.699997 25.400002 C 110.300003 25.700001 110.099998 26.099998 110.099998 26.599998 C 110.099998 26.799999 110.199997 27 110.400002 27.200001 C 110.599998 27.5 110.800003 27.599998 111 27.599998 Z"/>
        <path id="path3" fill="#ffffff" stroke="none" d="M 133.699997 16.400002 C 134.399994 16.400002 135.100006 16.599998 135.800003 16.799999 C 136.5 17.099998 137 17.599998 137.5 18.200001 C 138 18.799999 138.399994 19.599998 138.600006 20.599998 C 138.899994 21.599998 139 22.700001 139 24.099998 L 139 32.200001 L 131.899994 32.200001 L 131.899994 23.900002 C 131.899994 23.299999 131.800003 22.900002 131.5 22.599998 C 131.300003 22.299999 131 22.200001 130.699997 22.200001 C 130.399994 22.200001 130.100006 22.299999 129.899994 22.599998 C 129.699997 22.900002 129.5 23.299999 129.5 23.900002 L 129.5 32.200001 L 122.400002 32.200001 L 122.400002 16.400002 L 129.199997 16.400002 L 129.800003 18.200001 C 130.100006 17.900002 130.399994 17.599998 130.699997 17.299999 C 131 17.099998 131.399994 16.900002 131.899994 16.700001 C 132.399994 16.5 133 16.400002 133.699997 16.400002 Z"/>
    </g>
    <g id="g1">
        <path id="path4" fill="#ffffff" stroke="none" d="M 87.699997 43.599998 C 87.699997 43.599998 87.800003 43.899998 88 44.5 C 88.199997 45.099998 88.400002 45.899998 88.699997 46.899998 C 89 47.899998 89.300003 49 89.699997 50.200001 C 90.099998 51.5 90.400002 52.700001 90.800003 54 C 91.699997 57.099998 92.699997 60.5 93.800003 64.400002 L 85.199997 64.400002 L 84.599998 61.399998 L 80.699997 61.399998 L 80.099998 64.400002 L 71.5 64.400002 L 77.599998 43.599998 L 87.699997 43.599998 Z M 83.599998 56.700001 L 82.599998 51.299999 L 81.599998 56.700001 L 83.599998 56.700001 Z"/>
        <path id="path5" fill="#ffffff" stroke="none" d="M 113.099998 56.5 C 113.099998 57.799999 112.900002 58.899998 112.599998 59.899998 C 112.300003 60.899998 111.800003 61.700001 111.199997 62.399998 C 110.599998 63.099998 110 63.599998 109.199997 63.899998 C 108.400002 64.200005 107.699997 64.400002 106.800003 64.400002 C 106 64.400002 105.400002 64.300003 104.900002 64.099998 C 104.400002 63.899998 103.900002 63.599998 103.599998 63.399998 C 103.199997 63.099998 102.900002 62.700001 102.599998 62.299999 L 102.599998 71.900002 L 95.5 71.900002 L 95.5 48.599998 L 102 48.599998 L 102.599998 50.399998 C 102.800003 50.099998 103.199997 49.799999 103.599998 49.5 C 103.900002 49.299999 104.400002 49.099998 104.900002 48.899998 C 105.400002 48.700001 106.099998 48.599998 106.800003 48.599998 C 107.599998 48.599998 108.400002 48.799999 109.199997 49.099998 C 110 49.399998 110.599998 50 111.199997 50.599998 C 111.800003 51.299999 112.199997 52.099998 112.599998 53.099998 C 112.900002 54.099998 113.099998 55.299999 113.099998 56.5 Z M 105.699997 56.299999 C 105.699997 55.599998 105.5 55 105.199997 54.700001 C 104.900002 54.399998 104.5 54.200001 104 54.200001 C 103.5 54.200001 103.199997 54.399998 102.800003 54.700001 C 102.5 55.099998 102.300003 55.599998 102.300003 56.299999 C 102.300003 57 102.5 57.599998 102.800003 57.899998 C 103.099998 58.299999 103.5 58.399998 104 58.399998 C 104.5 58.399998 104.800003 58.200001 105.199997 57.899998 C 105.5 57.599998 105.699997 57.099998 105.699997 56.299999 Z"/>
        <path id="path6" fill="#ffffff" stroke="none" d="M 133.100006 56.5 C 133.100006 57.799999 132.899994 58.899998 132.600006 59.899998 C 132.300003 60.899998 131.800003 61.700001 131.199997 62.399998 C 130.600006 63.099998 130 63.599998 129.199997 63.899998 C 128.399994 64.200005 127.699997 64.400002 126.800003 64.400002 C 126 64.400002 125.400002 64.300003 124.900002 64.099998 C 124.400002 63.899998 123.900002 63.599998 123.599998 63.399998 C 123.199997 63.099998 122.900002 62.700001 122.599998 62.299999 L 122.599998 71.900002 L 115.5 71.900002 L 115.5 48.599998 L 122 48.599998 L 122.599998 50.399998 C 122.800003 50.099998 123.199997 49.799999 123.599998 49.5 C 123.900002 49.299999 124.400002 49.099998 124.900002 48.899998 C 125.400002 48.700001 126.099998 48.599998 126.800003 48.599998 C 127.599998 48.599998 128.399994 48.799999 129.199997 49.099998 C 130 49.399998 130.600006 50 131.199997 50.599998 C 131.800003 51.299999 132.199997 52.099998 132.600006 53.099998 C 132.899994 54.099998 133.100006 55.299999 133.100006 56.5 Z M 125.599998 56.299999 C 125.599998 55.599998 125.400002 55 125.099998 54.700001 C 124.800003 54.399998 124.400002 54.200001 123.900002 54.200001 C 123.400002 54.200001 123.099998 54.399998 122.699997 54.700001 C 122.300003 55 122.199997 55.599998 122.199997 56.299999 C 122.199997 57 122.400002 57.599998 122.699997 57.899998 C 123 58.299999 123.400002 58.399998 123.900002 58.399998 C 124.400002 58.399998 124.699997 58.200001 125.099998 57.899998 C 125.5 57.599998 125.599998 57.099998 125.599998 56.299999 Z"/>
        <path id="path7" fill="#ffffff" stroke="none" d="M 143.199997 48.599998 C 144.399994 48.599998 145.399994 48.799999 146.399994 49.200001 C 147.399994 49.599998 148.300003 50.099998 149 50.799999 C 149.800003 51.5 150.300003 52.299999 150.800003 53.200001 C 151.199997 54.099998 151.5 55.099998 151.5 56.200001 L 151.5 57.599998 L 142 57.599998 C 142.100006 57.899998 142.199997 58.200001 142.399994 58.399998 C 142.600006 58.599998 142.800003 58.799999 143.199997 59 C 143.600006 59.200001 144 59.200001 144.600006 59.200001 C 145 59.200001 145.300003 59.099998 145.699997 59 C 146 58.899998 146.300003 58.700001 146.5 58.599998 C 146.800003 58.399998 147 58.200001 147.300003 58 L 149.800003 62 C 149.399994 62.399998 148.800003 62.799999 148.199997 63.200001 C 147.699997 63.5 147 63.799999 146.199997 64 C 145.399994 64.200005 144.5 64.400002 143.5 64.400002 C 142.199997 64.400002 141.100006 64.200005 140 63.799999 C 138.899994 63.399998 138 62.799999 137.199997 62.099998 C 136.399994 61.399998 135.800003 60.5 135.399994 59.599998 C 135 58.599998 134.699997 57.599998 134.699997 56.5 C 134.699997 55.399998 134.899994 54.399998 135.399994 53.399998 C 135.899994 52.399998 136.399994 51.599998 137.199997 50.899998 C 138 50.200001 138.800003 49.599998 139.800003 49.200001 C 141 48.799999 142 48.599998 143.199997 48.599998 Z M 144.5 54.799999 C 144.5 54.5 144.399994 54.200001 144.100006 54.099998 C 143.800003 53.899998 143.5 53.899998 143.100006 53.899998 C 142.699997 53.899998 142.399994 54 142.100006 54.099998 C 141.800003 54.299999 141.699997 54.5 141.699997 54.799999 L 144.5 54.799999 Z"/>
        <path id="path8" fill="#ffffff" stroke="none" d="M 152.699997 54.599998 L 152.699997 48.599998 L 154.800003 48.599998 L 154.800003 43.5 L 161.899994 43.5 L 161.899994 48.599998 L 164.600006 48.599998 L 164.600006 54.599998 L 161.899994 54.599998 L 161.899994 57 C 161.899994 57.599998 162 58 162.300003 58.299999 C 162.600006 58.599998 162.899994 58.700001 163.399994 58.700001 C 163.600006 58.700001 163.699997 58.700001 163.800003 58.700001 C 163.899994 58.700001 164.100006 58.700001 164.199997 58.700001 C 164.300003 58.700001 164.399994 58.599998 164.600006 58.599998 L 164.600006 64.200005 C 164.399994 64.300003 164.100006 64.300003 163.800003 64.300003 C 163.600006 64.300003 163.300003 64.400002 163 64.400002 C 162.699997 64.400002 162.300003 64.400002 161.899994 64.400002 C 159.699997 64.400002 157.899994 63.799999 156.600006 62.5 C 155.300003 61.299999 154.699997 59.399998 154.699997 56.899998 L 154.699997 54.5 L 152.699997 54.5 L 152.699997 54.599998 Z"/>
        <path id="path9" fill="#ffffff" stroke="none" d="M 167.600006 41.200001 L 174.699997 41.200001 L 174.699997 46.899998 L 167.600006 46.899998 L 167.600006 41.200001 Z M 174.699997 48.599998 L 174.699997 64.400002 L 167.600006 64.400002 L 167.600006 48.599998 L 174.699997 48.599998 Z"/>
        <path id="path10" fill="#ffffff" stroke="none" d="M 176.800003 54.599998 L 176.800003 48.599998 L 178.899994 48.599998 L 178.899994 43.5 L 186 43.5 L 186 48.599998 L 188.699997 48.599998 L 188.699997 54.599998 L 186 54.599998 L 186 57 C 186 57.599998 186.100006 58 186.399994 58.299999 C 186.699997 58.599998 187 58.700001 187.5 58.700001 C 187.699997 58.700001 187.800003 58.700001 187.899994 58.700001 C 188 58.700001 188.199997 58.700001 188.300003 58.700001 C 188.399994 58.700001 188.5 58.599998 188.699997 58.599998 L 188.699997 64.200005 C 188.5 64.300003 188.199997 64.300003 187.899994 64.300003 C 187.699997 64.300003 187.399994 64.400002 187.100006 64.400002 C 186.800003 64.400002 186.399994 64.400002 186 64.400002 C 183.800003 64.400002 182 63.799999 180.699997 62.5 C 179.399994 61.299999 178.800003 59.399998 178.800003 56.899998 L 178.800003 54.5 L 176.800003 54.5 L 176.800003 54.599998 Z"/>
    </g>
    <path id="path11" fill="#2f2e6e" stroke="none" d="M 63.599998 40.399998 C 63.599998 47.099998 61.400002 53.700001 57.400002 59.200001 C 57 59.700001 56.599998 60.200001 56.200001 60.700001 C 56 61 55.700001 61.299999 55.5 61.5 C 54.599998 62.5 53.700001 63.399998 52.700001 64.300003 L 52.200001 64.700005 C 50.700001 65.900002 49.099998 67 47.400002 68 C 47 68.200005 46.599998 68.5 46.099998 68.700005 C 45.599998 68.900002 45 69.300003 44.5 69.5 C 34.700001 73.700005 23.4 72.800003 14.4 66.900002 L 14 66.700005 C 13.6 66.400002 13.1 66.100006 12.7 65.800003 C 10.8 64.400002 9.1 62.700001 7.5 60.899998 L 7.4 60.700001 C 7 60.200001 6.7 59.799999 6.3 59.299999 C 5.9 58.799999 5.6 58.299999 5.3 57.799999 C -4.3 43.099998 -0.3 23.5 14.4 13.799999 C 19.6 10.400002 25.700001 8.599998 31.9 8.599998 C 32.599998 8.599998 33.299999 8.599998 33.900002 8.699997 L 34.099998 8.699997 C 43.700001 9.300003 52.400002 14.299999 57.900002 22.200001 C 58.799999 23.400002 59.5 24.700001 60.200001 26.099998 C 62.299999 30.299999 63.5 35 63.599998 39.799999 C 63.599998 39.899998 63.599998 40.099998 63.599998 40.399998 C 63.599998 40.299999 63.599998 40.299999 63.599998 40.399998 Z"/>
    <path id="path12" fill="#2f2e6e" stroke="none" d="M 63.599998 40.5 C 63.599998 47.899998 61 55 56.299999 60.700001 L 55.599998 61.5 C 54.700001 62.5 53.799999 63.399998 52.799999 64.300003 L 52.200001 64.800003 C 50.700001 66.100006 49.099998 67.200005 47.400002 68.100006 C 47 68.300003 46.599998 68.5 46.200001 68.700005 C 45.700001 69 45.099998 69.200005 44.5 69.5 C 34.599998 73.800003 23.200001 72.800003 14.2 66.900002 L 14 66.800003 L 12.7 65.900002 C 10.8 64.400002 9 62.799999 7.5 60.899998 C 7.1 60.399998 6.6 59.899998 6.2 59.299999 C 5.8 58.700001 5.6 58.5 5.3 58 C 3.6 51.599998 2.2 44.700001 2.1 42.399998 L 2.1 42.399998 C 2.1 42.299999 2.1 42.200001 2.1 42.099998 L 2.1 42.099998 C 2.1 42 2.1 42 2.1 41.899998 C 2 40 1.4 38.099998 0.3 36.5 C 2.3 20.599998 15.8 8.699997 31.799999 8.699997 C 32.599998 8.699997 33.400002 8.699997 34.099998 8.800003 C 43.700001 9.5 52.5 14.5 58 22.5 L 58 22.5 C 61.700001 27.799999 63.599998 34.099998 63.599998 40.5 Z"/>
    <path id="path13" fill="#19193c" stroke="none" d="M 7.4 60.700001 C 7.8 60.299999 8.2 59.899998 8.6 59.5 C 8.2 59.099998 7.9 58.599998 7.5 58.099998 C 8.3 57.200001 9.6 56.5 10.7 55.5 L 11.4 55.200001 C 12.6 54.099998 13.4 53.700001 14.7 52.799999 C 19.799999 49.399998 21.5 48.200001 21.5 48.200001 C 23.799999 47.700001 26.6 47.5 28.9 47.399998 L 28.799999 47.299999 C 29 46.299999 28.9 46.700001 28.9 46.700001 L 29 46.5 C 29 46.399998 29.200001 46.5 29.200001 46.399998 L 29.6 46.299999 L 29.6 46 C 29.6 45.799999 29.6 45.599998 29.700001 45.5 L 29.700001 45.399998 L 29.799999 44.899998 C 29.799999 44.899998 29.799999 44.899998 29.799999 44.799999 C 29.799999 44.599998 29.799999 44.5 29.799999 44.299999 L 29.799999 44.200001 C 29.799999 44.099998 29.799999 44.099998 29.799999 44 L 30.299999 44 L 30 43.399998 C 30 43.099998 30.299999 42.799999 30.4 42.5 C 30.4 42.200001 30.4 41.399998 30.5 41.099998 C 29.200001 41.099998 28.1 40.200001 27.1 39.399998 C 25.700001 37.899998 25.4 34.5 24.700001 31.900002 C 25.1 31.299999 24.200001 31.400002 24.6 30.700001 C 24.5 30.299999 24.4 29.900002 24.200001 29.599998 C 25.1 28.299999 25.9 27 26.5 25.5 C 26.200001 25.599998 27.1 25 26.799999 24.900002 C 27.200001 23.900002 27.9 22 28.5 21.099998 C 27.299999 22.400002 25.6 22.099998 25.1 20.599998 C 25.299999 19.700001 25 19.700001 25.6 19 C 25.5 17.700001 26.200001 16.900002 27 15.900002 C 28.1 15.200001 29.1 14.5 30.5 14.5 C 31.9 14.400002 33.5 15.5 34.599998 16.299999 C 35.700001 15.799999 37.099998 14 37.5 12.900002 C 36.099998 11.900002 35.299999 10.400002 34.799999 8.800003 C 34.799999 8.699997 34.599998 8.199997 34.599998 8.099998 C 34.5 7.900002 34.700001 7.5 34.599998 7.199997 C 34.700001 6 34.099998 5.900002 34.799999 4.900002 C 34.799999 3.5 37.599998 3.800003 38.400002 2.699997 C 39.799999 1.800003 39.5 0.199997 41.799999 1.5 C 50.200001 6.300003 49.900002 11 49.900002 11 C 57 11.400002 58.900002 19.700001 56.599998 19.799999 C 57 20.599998 57.299999 21.5 57.599998 22.400002 C 58.5 23.599998 59.200001 24.900002 59.900002 26.299999 C 59.900002 26.400002 59.900002 26.400002 59.900002 26.5 C 60 28.099998 59.5 29.599998 58.599998 30.900002 C 58.200001 37.099998 52.400002 38.099998 49.900002 31.599998 C 48.599998 33.5 47 33.599998 45.299999 32.399998 C 45.099998 32.700001 44.900002 33 44.700001 33.399998 C 44.099998 35.5 42.799999 37.399998 41.099998 38.799999 C 40.400002 39.399998 39.599998 40 39 40.700001 L 39.799999 45.700001 C 39.900002 45.700001 40 45.700001 40 45.700001 C 40.099998 46.099998 40.099998 46.5 40.200001 46.899998 L 40.200001 46.899998 C 43 47.200001 45.700001 48 48.200001 49.200001 C 48.299999 49.299999 48.400002 49.299999 48.5 49.399998 L 48.5 49.399998 C 51.900002 51.700001 55.200001 56.299999 57.099998 59.5 L 57.200001 59.599998 C 57.299999 59.700001 57.099998 59.5 57.200001 59.599998 C 57 59.899998 56.700001 60.299999 56.5 60.599998 C 56.099998 61.099998 55.799999 61.5 55.299999 62"/>
    <path id="path14" fill="#3d8f7c" stroke="none" d="M 52.799999 64.400002 L 52.200001 64.900002 C 52.200001 64.300003 52.200001 64 52.200001 64 L 52.799999 64.400002 Z"/>
    <path id="path15" fill="#eda391" stroke="none" d="M 52.099998 64.900002 C 50.599998 66.200005 49 67.300003 47.299999 68.200005 C 46.900002 68.400002 46.5 68.600006 46.099998 68.800003 C 46 68.600006 46 68.5 46 68.5 L 48.5 58.399998 L 48.900002 56.899998 L 55.200001 60.899998 C 55.200001 60.899998 55.299999 61.099998 55.599998 61.5 C 54.700001 62.5 53.799999 63.399998 52.799999 64.300003 L 52.099998 64.900002 Z"/>
    <path id="path16" fill="#f48c7f" stroke="none" d="M 14.8 66.100006 C 14.8 66.100006 14.6 66.5 14.2 67.100006 L 13.9 66.900002 L 12.6 66 C 10.7 64.5 8.9 62.899998 7.4 61 L 9.1 59.899998 L 13.1 64.300003 L 14.4 65.700005 L 14.8 66.100006 Z"/>
    <path id="path17" fill="#f4ba41" stroke="none" d="M 21.6 48.299999 L 14.4 65.700005 L 13.9 66.900002 C 13.5 66.600006 13 66.300003 12.6 66 C 10.7 64.5 8.9 62.899998 7.4 61 L 7.3 60.799999 C 6.9 60.299999 6.5 59.899998 6.2 59.399998 C 7.3 58.200001 8.8 56.700001 10.4 55.399998 L 10.4 55.399998 C 11.6 54.299999 12.9 53.399998 14.2 52.399998 C 19.200001 49 21.6 48.299999 21.6 48.299999 Z"/>
    <path id="path18" fill="#f4cf77" stroke="none" d="M 48.5 58.5 C 48.299999 61.5 47.900002 65 47.299999 68.200005 C 46.900002 68.400002 46.5 68.600006 46.099998 68.800003 C 45.599998 69.100006 45 69.300003 44.400002 69.600006 C 34.5 73.900002 23.1 72.900002 14.1 67 L 13.8 66.800003 C 13.4 66.5 12.9 66.200005 12.5 65.900002 C 12.6 65.300003 12.8 64.700005 13 64.200005 C 16.299999 53.200001 21.4 48.299999 21.4 48.299999 C 23.700001 47.799999 26 47.5 28.299999 47.399998 L 28.5 47.399998 L 30 47.399998 L 30 47.399998 C 32.299999 47.399998 34.299999 47.5 35.799999 47.599998 L 35.799999 47.599998 C 37 47.700001 37.799999 47.799999 37.900002 47.799999 C 38 47.799999 38.200001 47.799999 38.799999 47.899998 L 39 47.899998 C 41.799999 48.200001 44.5 49 47 50.200001 C 47.099998 50.200001 47.200001 50.299999 47.299999 50.399998 L 47.299999 50.399998 C 48.5 51.299999 48.700001 54.5 48.5 58.5 Z"/>
    <path id="path19" fill="#f4ba41" stroke="none" d="M 56.299999 60.799999 L 55.599998 61.599998 C 54.700001 62.599998 53.799999 63.5 52.799999 64.400002 L 52.200001 64.900002 C 50.700001 66.200005 49.099998 67.300003 47.400002 68.200005 C 47 68.400002 46.599998 68.600006 46.200001 68.800003 C 45.700001 69.100006 45.099998 69.300003 44.5 69.600006 C 44.200001 69.300003 44 69 43.700001 68.600006 C 41.299999 56.399998 47.400002 50.299999 47.400002 50.299999 L 47.400002 50.299999 C 51 52.700001 54.299999 57.599998 56.299999 60.799999 Z"/>
    <path id="path20" fill="#8f89c0" stroke="none" d="M 39 48.399998 C 39 48.399998 34.900002 50.5 31.299999 49.899998 C 28.299999 49.399998 28.700001 47.799999 28.700001 47.799999 L 28.799999 47.299999 C 28.9 47.099998 28.9 46.700001 29 46.399998 C 29 46.299999 29 46.299999 29 46.200001 C 29.1 45.5 29.299999 44.700001 29.5 43.799999 L 29.6 43.399998 C 29.6 43.099998 29.700001 42.700001 29.700001 42.399998 C 29.700001 42.099998 29.799999 41.700001 29.799999 41.399998 L 29.799999 41 C 29.799999 40.899998 29.799999 40.700001 29.799999 40.599998 C 29.799999 40.299999 29.799999 40 29.799999 39.700001 L 29.799999 39.299999 C 29.799999 39.200001 29.799999 39.099998 29.799999 39 C 29.4 36.399998 35.299999 37.5 37 37.799999 L 37 37.799999 L 37.5 37.899998 L 37.599998 38.399998 L 37.700001 38.799999 L 37.900002 40.200001 L 38.900002 46.700001 L 39.099998 47.799999 L 39 48.399998 Z"/>
    <path id="path21" fill="#2f2e6e" stroke="none" d="M 37.5 38.700001 C 37.400002 38.899998 37.299999 39.099998 37.200001 39.299999 C 37 39.599998 36.799999 39.899998 36.599998 40.200001 C 34.700001 42.099998 32 43.299999 29.299999 43.5 C 29.4 42.799999 29.5 42.200001 29.5 41.5 C 29.5 41.200001 29.700001 40.899998 29.700001 40.599998 C 29.700001 40.200001 29.700001 39.700001 29.700001 39.200001 C 29.700001 39.099998 29.700001 39 29.700001 38.899998 C 29.299999 36.299999 35.200001 37.399998 36.900002 37.700001 L 36.900002 37.700001 L 37.400002 37.799999 L 37.5 38.299999 L 37.5 38.700001 Z"/>
    <path id="path22" fill="#8f89c0" stroke="none" d="M 37.5 38.299999 L 37.5 38.299999 C 37.400002 38.5 37.200001 38.599998 37.099998 38.799999 L 37.099998 38.799999 C 35.099998 40.599998 32.5 41.599998 29.799999 41.5 L 29.799999 41.5 C 28.5 41.5 27.299999 41 26.4 40.099998 C 25 38.599998 24.4 35.200001 23.700001 32.599998 C 23.5 31.900002 23.299999 31.299999 23.1 30.700001 C 24.299999 29 25.200001 27.200001 25.9 25.299999 C 26.299999 24.299999 26.799999 23.299999 27.4 22.299999 L 27.4 22.299999 C 27.5 22.099998 27.700001 21.900002 27.9 21.700001 L 27.9 21.700001 C 28.1 21.5 28.299999 21.200001 28.5 21 L 28.5 21 L 28.799999 20.700001 C 32.400002 18.099998 36.299999 20.700001 37.900002 22.099998 L 37.900002 22.099998 C 38.200001 22.299999 38.400002 22.599998 38.700001 22.900002 C 38.799999 23.200001 38.900002 23.400002 38.900002 23.700001 L 38.900002 23.700001 C 39.299999 26.5 40.099998 35.5 37.5 38.299999 Z"/>
    <path id="path23" fill="#180d0d" stroke="none" d="M 45.099998 29.5 C 45 29.900002 45 30.299999 44.799999 30.700001 C 44.200001 32.799999 42.900002 34.799999 41.200001 36.099998 C 38 38.599998 37.700001 40 37.599998 40.200001 L 37.599998 40.200001 L 37.099998 39.399998 L 37.099998 39.299999 C 37.099998 39.200001 37 39.200001 37 39.099998 C 37 39 36.900002 38.799999 36.900002 38.700001 L 36.900002 38.700001 C 36.799999 38.399998 36.799999 38 36.799999 37.700001 L 36.799999 37.700001 C 36.799999 37.399998 36.799999 37 36.900002 36.5 C 37 35.799999 37.099998 35.099998 37.400002 34.399998 L 37.400002 34.399998 C 37.400002 34.299999 37.400002 34.299999 37.5 34.200001 C 38.200001 32.700001 36.599998 31.599998 35.5 30.400002 C 35.299999 30.200001 35.200001 30 35 29.799999 C 31.799999 25 34.099998 22.799999 32.5 22.799999 C 31.4 22.799999 29.700001 20.200001 28.4 20.799999 L 28.4 20.799999 C 28.200001 20.900002 28 21.099998 27.799999 21.400002 L 27.799999 21.400002 L 27.799999 21.400002 C 27.700001 21.599998 27.5 21.799999 27.299999 22 L 27.299999 22 C 26.1 23.299999 25 22.5 24.5 21 C 23.799999 18.700001 24.700001 16.299999 26.700001 15 C 27.799999 14.299999 29.1 14 30.5 13.900002 C 31.9 13.799999 33.299999 14.299999 34.5 15.099998 C 35.599998 15.900002 36.599998 16.799999 37.400002 17.900002 C 38.200001 18 38.900002 18.200001 39.599998 18.599998 C 41.299999 19.700001 42.700001 21.200001 43.700001 23 C 45 25.099998 45.5 27.299999 45.099998 29.5 Z"/>
    <path id="path24" fill="#8f89c0" stroke="none" d="M 35.299999 32.099998 C 35.299999 33.599998 35.900002 34.799999 36.799999 34.799999 C 37.700001 34.799999 38.400002 33.599998 38.400002 32.099998 C 38.400002 30.599998 37.799999 29.400002 36.900002 29.400002 C 36 29.400002 35.299999 30.599998 35.299999 32.099998 Z"/>
    <path id="path25" fill="#f4ba41" stroke="none" d="M 39.200001 48.399998 C 37 50.099998 32.299999 50.599998 30.4 49.899998 C 28.700001 49.299999 28.4 48 28.5 47.5 L 28.5 47.399998 L 28.5 47.399998 C 28.700001 46.399998 28.799999 46.299999 28.799999 46.299999 L 29 46.399998 C 29.299999 46.599998 29.700001 47 30.1 47.299999 C 31 47.899998 32 48.099998 33 48 C 34 47.899998 35 47.799999 35.900002 47.5 L 35.900002 47.5 C 37.200001 47.099998 38.200001 46.700001 38.799999 46.599998 C 38.900002 46.599998 39 46.599998 39 46.599998 C 39.099998 47 39.099998 47.399998 39.200001 47.799999 C 39.099998 48.200001 39.200001 48.399998 39.200001 48.399998 Z"/>
    <path id="path26" fill="#f4ba41" stroke="none" d="M 52.5 23.299999 C 49.900002 25.099998 47.5 27.299999 45.5 29.700001 C 45.299999 30 45.099998 30.299999 44.900002 30.599998 L 44.900002 30.599998 C 42.599998 28.599998 40.599998 26.299999 38.900002 23.700001 C 38.599998 23.200001 38.200001 22.700001 37.900002 22.099998 L 37.900002 22.099998 C 36.599998 20 35.5 17.700001 34.700001 15.400002 C 35.799999 14.900002 36.599998 14 37.099998 12.900002 C 37.599998 11.900002 37.900002 10.900002 38 9.800003 C 37.900002 9.900002 44.599998 15.5 52.5 23.299999 Z"/>
    <path id="path27" fill="#f4cf77" stroke="none" d="M 50.099998 28.900002 C 48.799999 30.799999 47.200001 30.900002 45.5 29.700001 L 45.099998 29.400002 C 42.799999 27.599998 40.700001 23.599998 39.799999 18.900002 C 39.5 17.299999 39.299999 15.799999 39.299999 14.200001 C 38.5 13.900002 37.700001 13.400002 37 12.900002 C 35.599998 11.900002 34.599998 10.5 34 8.800003 C 34 8.699997 34 8.699997 33.900002 8.599998 C 33.799999 8.400002 33.799999 8.099998 33.700001 7.900002 C 33.099998 5 34.099998 2.099998 36.200001 0.900002 C 37.700001 0.099998 39.700001 0 42 1.300003 C 50.400002 6.099998 50.099998 10.800003 50.099998 10.800003 C 57.200001 11.199997 59.099998 19.5 56.799999 19.599998 C 57.200001 20.400002 57.5 21.299999 57.799999 22.200001 C 57.799999 22.299999 57.900002 22.400002 57.900002 22.5 C 61.5 33.399998 53.200001 37 50.099998 28.900002 Z"/>
    <path id="path28" fill="#eda391" stroke="none" d="M 2.1 42.5 C 2.1 42.399998 2.1 42.299999 2.1 42.200001 C 2.1 42.399998 2.1 42.5 2.1 42.5 Z"/>
    <path id="path29" fill="#f4ba41" stroke="none" d="M 30.469179 52.482063 C 30.903585 52.562653 31.125078 53.332291 30.963898 54.201099 C 30.802719 55.069908 30.319906 55.708889 29.8855 55.6283 C 29.451096 55.54771 29.229601 54.778069 29.390779 53.90926 C 29.551958 53.040451 30.034777 52.401474 30.469179 52.482063 Z"/>
    <path id="path30" fill="#f4ba41" stroke="none" d="M 29.38048 58.244057 C 29.814888 58.32465 30.036379 59.094292 29.8752 59.9631 C 29.71402 60.831909 29.231207 61.47089 28.796801 61.390301 C 28.362392 61.309711 28.140902 60.54007 28.30208 59.671257 C 28.463259 58.802452 28.946074 58.163467 29.38048 58.244057 Z"/>
    <path id="path31" fill="#f4ba41" stroke="none" d="M 28.247303 63.984001 C 28.681705 64.06459 28.903196 64.834229 28.742018 65.703041 C 28.580839 66.571854 28.098026 67.210831 27.663624 67.130241 C 27.229212 67.049652 27.007721 66.280014 27.1689 65.411201 C 27.330078 64.542389 27.812893 63.903412 28.247303 63.984001 Z"/>
</svg>
