<?xml version="1.0" encoding="UTF-8"?>
<!-- Generated by Pixelmator Pro 3.7 -->
<svg width="181" height="70" viewBox="0 0 181 70" xmlns="http://www.w3.org/2000/svg">
    <path id="Path" fill="#3d8f7c" stroke="none" d="M 72.5 -12.300003 L 71.699997 -11.599998 C 71.699997 -12.300003 71.699997 -12.800003 71.699997 -12.800003 L 72.5 -12.300003 Z"/>
    <g id="Group">
        <path id="path1" fill="#ffffff" stroke="none" d="M 78 11.199997 C 79.599998 11.199997 80.900002 11.400002 82.099998 11.699997 C 83.199997 12 84.199997 12.5 84.900002 13.099998 C 85.599998 13.699997 86.199997 14.400002 86.599998 15.300003 C 87 16.099998 87.099998 17.099998 87.099998 18.099998 C 87.099998 19.099998 86.900002 20 86.599998 20.900002 C 86.300003 21.799999 85.699997 22.5 85.099998 23.100002 C 84.400002 23.700001 83.599998 24.200001 82.699997 24.5 C 81.800003 24.799999 80.699997 25 79.5 25 C 79.199997 25 78.900002 25 78.599998 25 C 78.300003 25 78 25 77.800003 25 C 77.5 25 77.199997 25 76.900002 24.900002 L 76.900002 31.299999 L 69.5 31.299999 L 69.5 11.199997 C 70.300003 11.199997 71.199997 11.199997 72.099998 11.199997 C 72.900002 11.199997 73.800003 11.199997 74.800003 11.199997 C 75.800003 11.199997 76.800003 11.199997 78 11.199997 Z M 78 19.5 C 78.5 19.5 78.900002 19.400002 79.199997 19.099998 C 79.5 18.800003 79.699997 18.5 79.699997 18 C 79.699997 17.5 79.5 17.199997 79.199997 16.900002 C 78.900002 16.599998 78.5 16.5 78 16.5 L 76.900002 16.5 L 76.900002 19.5 L 78 19.5 Z"/>
        <path id="path2" fill="#ffffff" stroke="none" d="M 89.400002 10.099998 L 96.199997 10.099998 L 96.199997 31.200001 L 89.400002 31.200001 L 89.400002 10.099998 Z"/>
        <path id="path3" fill="#ffffff" stroke="none" d="M 105.699997 16 C 106.900002 16 108 16.199997 109.099998 16.599998 C 110.099998 17 111 17.599998 111.800003 18.300003 C 112.599998 19 113.099998 19.799999 113.599998 20.799999 C 114 21.700001 114.199997 22.799999 114.199997 23.799999 L 114.199997 31.200001 L 107.699997 31.200001 L 107.099998 29.400002 C 106.900002 29.700001 106.599998 30 106.199997 30.299999 C 105.900002 30.5 105.5 30.700001 105 30.900002 C 104.5 31.100002 104 31.200001 103.300003 31.200001 C 102.5 31.200001 101.800003 31.100002 101.199997 30.799999 C 100.599998 30.600002 100 30.200001 99.599998 29.799999 C 99.199997 29.400002 98.800003 28.900002 98.599998 28.299999 C 98.400002 27.700001 98.199997 27.100002 98.199997 26.400002 C 98.199997 25.700001 98.300003 25.100002 98.599998 24.5 C 98.900002 23.900002 99.300003 23.400002 99.800003 23 C 100.400002 22.600002 101.099998 22.299999 101.900002 22 C 102.699997 21.700001 103.800003 21.600002 105 21.600002 L 107.300003 21.600002 C 107.199997 21.5 107.099998 21.299999 106.900002 21.200001 C 106.699997 21.100002 106.400002 21 106.099998 20.900002 C 105.800003 20.799999 105.300003 20.799999 104.699997 20.799999 C 104.300003 20.799999 104 20.799999 103.699997 20.900002 C 103.400002 21 103.099998 21 102.900002 21.100002 C 102.599998 21.200001 102.400002 21.299999 102.199997 21.400002 L 99.800003 18.099998 C 100.199997 17.699997 100.699997 17.300003 101.300003 17 C 101.800003 16.699997 102.400002 16.5 103.199997 16.199997 C 104 15.900002 104.800003 16 105.699997 16 Z M 105.900002 26.700001 C 106.300003 26.700001 106.599998 26.5 106.900002 26.100002 C 107.199997 25.700001 107.300003 25 107.300003 24.100002 C 106.5 24.100002 105.900002 24.299999 105.599998 24.600002 C 105.199997 24.900002 105.099998 25.299999 105.099998 25.799999 C 105.099998 26 105.199997 26.200001 105.400002 26.400002 C 105.599998 26.600002 105.699997 26.700001 105.900002 26.700001 Z"/>
        <path id="path4" fill="#ffffff" stroke="none" d="M 127.5 16 C 128.199997 16 128.899994 16.099998 129.5 16.400002 C 130.100006 16.699997 130.699997 17.099998 131.100006 17.699997 C 131.600006 18.300003 131.899994 19.099998 132.199997 20 C 132.5 20.900002 132.600006 22 132.600006 23.299999 L 132.600006 31.100002 L 125.800003 31.100002 L 125.800003 23.100002 C 125.800003 22.5 125.699997 22.100002 125.400002 21.799999 C 125.199997 21.5 124.900002 21.400002 124.599998 21.400002 C 124.300003 21.400002 124.099998 21.5 123.800003 21.799999 C 123.599998 22.100002 123.400002 22.5 123.400002 23.100002 L 123.400002 31.100002 L 116.599998 31.100002 L 116.599998 16 L 123.099998 16 L 123.699997 17.699997 C 123.900002 17.400002 124.199997 17.099998 124.599998 16.800003 C 124.900002 16.599998 125.300003 16.400002 125.800003 16.199997 C 126.300003 16.099998 126.900002 16 127.5 16 Z"/>
    </g>
    <g id="g1">
        <path id="path5" fill="#ffffff" stroke="none" d="M 83.5 42 C 83.5 42 83.599998 42.299999 83.800003 42.900002 C 84 43.5 84.199997 44.200001 84.5 45.200001 C 84.800003 46.100002 85.099998 47.200001 85.400002 48.400002 C 85.800003 49.600002 86.099998 50.799999 86.5 52.000004 C 87.400002 54.899998 88.300003 58.200001 89.400002 61.899998 L 81.099998 61.899998 L 80.5 59.100002 L 76.800003 59.100002 L 76.199997 61.899998 L 68 61.899998 L 73.800003 42 C 73.800003 42 83.5 42 83.5 42 Z M 79.699997 54.500004 L 78.699997 49.400002 L 77.699997 54.500004 L 79.699997 54.500004 Z"/>
        <path id="path6" fill="#ffffff" stroke="none" d="M 107.900002 54.399998 C 107.900002 55.600002 107.699997 56.700001 107.400002 57.600002 C 107.099998 58.500004 106.599998 59.299999 106.099998 60.000004 C 105.5 60.600002 104.900002 61.100002 104.199997 61.500004 C 103.5 61.799999 102.699997 62.000004 102 62.000004 C 101.300003 62.000004 100.699997 61.899998 100.199997 61.700001 C 99.699997 61.500004 99.300003 61.299999 99 61.000004 C 98.599998 60.700001 98.300003 60.299999 98.099998 60.000004 L 98.099998 69.199997 L 91.300003 69.199997 L 91.300003 46.799999 L 97.599998 46.799999 L 98.199997 48.5 C 98.400002 48.200001 98.699997 47.900002 99.099998 47.700001 C 99.400002 47.5 99.800003 47.299999 100.300003 47.100002 C 100.800003 46.900002 101.400002 46.799999 102.099998 46.799999 C 102.900002 46.799999 103.599998 47 104.300003 47.299999 C 105 47.600002 105.699997 48.100002 106.199997 48.799999 C 106.699997 49.400002 107.199997 50.200001 107.5 51.200001 C 107.800003 52.200001 107.900002 53.200001 107.900002 54.399998 Z M 100.800003 54.200001 C 100.800003 53.500004 100.599998 53.000004 100.300003 52.600002 C 100 52.299999 99.599998 52.100002 99.199997 52.100002 C 98.800003 52.100002 98.400002 52.299999 98.099998 52.600002 C 97.800003 52.899998 97.599998 53.500004 97.599998 54.200001 C 97.599998 54.899998 97.800003 55.399998 98.099998 55.799999 C 98.400002 56.100002 98.800003 56.299999 99.199997 56.299999 C 99.599998 56.299999 100 56.100002 100.300003 55.799999 C 100.599998 55.399998 100.800003 54.899998 100.800003 54.200001 Z"/>
        <path id="path7" fill="#ffffff" stroke="none" d="M 126.900002 54.399998 C 126.900002 55.600002 126.699997 56.700001 126.400002 57.600002 C 126.099998 58.500004 125.599998 59.299999 125.099998 60.000004 C 124.599998 60.600002 123.900002 61.100002 123.199997 61.500004 C 122.5 61.799999 121.699997 62.000004 121 62.000004 C 120.300003 62.000004 119.699997 61.899998 119.199997 61.700001 C 118.699997 61.500004 118.300003 61.299999 118 61.000004 C 117.599998 60.700001 117.300003 60.299999 117.099998 60.000004 L 117.099998 69.199997 L 110.300003 69.199997 L 110.300003 46.799999 L 116.599998 46.799999 L 117.199997 48.5 C 117.400002 48.200001 117.699997 47.900002 118.099998 47.700001 C 118.400002 47.5 118.800003 47.299999 119.300003 47.100002 C 119.800003 46.900002 120.400002 46.799999 121.099998 46.799999 C 121.900002 46.799999 122.599998 47 123.300003 47.299999 C 124 47.600002 124.699997 48.100002 125.199997 48.799999 C 125.800003 49.400002 126.199997 50.200001 126.5 51.200001 C 126.800003 52.200001 126.900002 53.200001 126.900002 54.399998 Z M 119.800003 54.200001 C 119.800003 53.500004 119.599998 53.000004 119.300003 52.600002 C 119 52.299999 118.599998 52.100002 118.199997 52.100002 C 117.800003 52.100002 117.400002 52.299999 117.099998 52.600002 C 116.800003 52.899998 116.599998 53.500004 116.599998 54.200001 C 116.599998 54.899998 116.800003 55.399998 117.099998 55.799999 C 117.400002 56.100002 117.800003 56.299999 118.199997 56.299999 C 118.599998 56.299999 119 56.100002 119.300003 55.799999 C 119.699997 55.399998 119.800003 54.899998 119.800003 54.200001 Z"/>
        <path id="path8" fill="#ffffff" stroke="none" d="M 136.600006 46.799999 C 137.699997 46.799999 138.699997 47 139.699997 47.400002 C 140.699997 47.799999 141.5 48.299999 142.199997 49 C 142.899994 49.700001 143.5 50.400002 143.899994 51.299999 C 144.300003 52.200001 144.5 53.100002 144.5 54.100002 L 144.5 55.399998 L 135.399994 55.399998 C 135.5 55.700001 135.600006 56.000004 135.800003 56.200001 C 136 56.399998 136.199997 56.600002 136.600006 56.700001 C 136.899994 56.899998 137.399994 56.899998 138 56.899998 C 138.399994 56.899998 138.699997 56.799999 139 56.700001 C 139.300003 56.600002 139.600006 56.500004 139.800003 56.299999 C 140.100006 56.100002 140.300003 55.899998 140.5 55.700001 L 142.899994 59.500004 C 142.5 59.899998 142 60.299999 141.399994 60.600002 C 140.899994 60.899998 140.300003 61.100002 139.5 61.399998 C 138.800003 61.600002 137.899994 61.799999 136.899994 61.799999 C 135.699997 61.799999 134.600006 61.600002 133.5 61.200001 C 132.5 60.799999 131.600006 60.299999 130.800003 59.600002 C 130 58.899998 129.5 58.100002 129 57.200001 C 128.600006 56.299999 128.399994 55.299999 128.399994 54.299999 C 128.399994 53.299999 128.600006 52.299999 129 51.399998 C 129.399994 50.5 130 49.700001 130.699997 49 C 131.399994 48.299999 132.300003 47.799999 133.199997 47.400002 C 134.5 47 135.5 46.799999 136.600006 46.799999 Z M 137.899994 52.700001 C 137.899994 52.399998 137.800003 52.200001 137.5 52.000004 C 137.300003 51.799999 136.899994 51.799999 136.600006 51.799999 C 136.300003 51.799999 135.899994 51.899998 135.699997 52.000004 C 135.5 52.200001 135.300003 52.399998 135.300003 52.700001 L 137.899994 52.700001 Z"/>
        <path id="path9" fill="#ffffff" stroke="none" d="M 145.699997 52.500004 L 145.699997 46.799999 L 147.699997 46.799999 L 147.699997 42 L 154.5 42 L 154.5 46.799999 L 157.100006 46.799999 L 157.100006 52.500004 L 154.5 52.500004 L 154.5 54.799999 C 154.5 55.299999 154.600006 55.700001 154.899994 56.000004 C 155.199997 56.299999 155.5 56.399998 155.899994 56.399998 C 156.100006 56.399998 156.199997 56.399998 156.300003 56.399998 C 156.399994 56.399998 156.5 56.399998 156.699997 56.399998 C 156.800003 56.399998 156.899994 56.399998 157.100006 56.299999 L 157.100006 61.700001 C 156.899994 61.799999 156.600006 61.799999 156.399994 61.799999 C 156.199997 61.799999 155.899994 61.899998 155.600006 61.899998 C 155.300003 61.899998 154.899994 61.899998 154.600006 61.899998 C 152.5 61.899998 150.800003 61.299999 149.600006 60.100002 C 148.399994 58.899998 147.800003 57.100002 147.800003 54.799999 L 147.800003 52.500004 C 147.800003 52.500004 145.699997 52.500004 145.699997 52.500004 Z"/>
        <path id="path10" fill="#ffffff" stroke="none" d="M 160 39.700001 L 166.800003 39.700001 L 166.800003 45.100002 L 160 45.100002 L 160 39.700001 Z M 166.800003 46.799999 L 166.800003 61.899998 L 160 61.899998 L 160 46.799999 L 166.800003 46.799999 Z"/>
        <path id="path11" fill="#ffffff" stroke="none" d="M 168.800003 52.500004 L 168.800003 46.799999 L 170.800003 46.799999 L 170.800003 42 L 177.600006 42 L 177.600006 46.799999 L 180.199997 46.799999 L 180.199997 52.500004 L 177.600006 52.500004 L 177.600006 54.799999 C 177.600006 55.299999 177.699997 55.700001 178 56.000004 C 178.300003 56.299999 178.600006 56.399998 179 56.399998 C 179.199997 56.399998 179.300003 56.399998 179.399994 56.399998 C 179.5 56.399998 179.600006 56.399998 179.800003 56.399998 C 179.899994 56.399998 180 56.399998 180.199997 56.299999 L 180.199997 61.700001 C 180 61.799999 179.699997 61.799999 179.5 61.799999 C 179.300003 61.799999 179 61.899998 178.699997 61.899998 C 178.399994 61.899998 178 61.899998 177.699997 61.899998 C 175.600006 61.899998 173.899994 61.299999 172.699997 60.100002 C 171.5 58.899998 170.899994 57.100002 170.899994 54.799999 L 170.899994 52.500004 C 170.899994 52.500004 168.800003 52.500004 168.800003 52.500004 Z"/>
    </g>
    <path id="path12" fill="#f17c63" stroke="none" d="M 60.900002 38.799999 C 60.900002 45.299999 58.799999 51.500004 55 56.700001 C 54.599998 57.200001 54.299999 57.700001 53.900002 58.100002 C 53.700001 58.399998 53.400002 58.600002 53.200001 58.899998 C 52.400002 59.899998 51.400002 60.700001 50.5 61.600002 C 50.299999 61.700001 50.200001 61.899998 50 62.000004 C 48.5 63.200001 47 64.300003 45.400002 65.199997 C 45 65.399994 44.599998 65.600006 44.200001 65.800003 C 43.799999 66 43.099998 66.300003 42.599998 66.600006 C 33.200001 70.699997 22.4 69.699997 13.8 64.100006 L 13.5 63.899998 C 13.1 63.600002 12.7 63.299999 12.3 63.000004 C 10.5 61.600002 8.8 60.100002 7.4 58.299999 C 7.3 58.200001 7.3 58.200001 7.3 58.100002 C 6.9 57.700001 6.6 57.200001 6.2 56.700001 C 5.8 56.200001 5.5 55.799999 5.2 55.299999 C -4 41.299999 -0.1 22.400002 13.9 13.199997 C 18.9 9.900002 24.700001 8.199997 30.6 8.199997 C 31.299999 8.199997 31.9 8.199997 32.599998 8.300003 L 32.799999 8.300003 C 42 9 50.299999 13.800003 55.5 21.299999 C 56.299999 22.5 57.099998 23.700001 57.700001 25 C 59.799999 29.100002 60.900002 33.5 60.900002 38.100002 C 60.900002 38.200001 60.900002 38.400002 60.900002 38.5 C 60.799999 38.700001 60.799999 38.700001 60.900002 38.799999 Z"/>
    <path id="path13" fill="#f17c63" stroke="none" d="M 60.900002 38.900002 C 60.900002 46 58.400002 52.799999 53.900002 58.299999 L 53.200001 59.100002 C 52.400002 60.000004 51.5 60.899998 50.5 61.700001 L 49.900002 62.200001 C 48.5 63.399998 46.900002 64.5 45.299999 65.399994 C 44.900002 65.600006 44.599998 65.800003 44.200001 66 C 43.700001 66.300003 43.099998 66.5 42.599998 66.800003 C 33.099998 70.899994 22.200001 70 13.6 64.300003 L 13.3 64.100006 C 12.9 63.799999 12.5 63.500004 12.1 63.200001 C 10.3 61.799999 8.6 60.200001 7.1 58.500004 C 6.7 58.000004 6.3 57.500004 5.9 57.000004 C 5.5 56.500004 5.3 56.200001 5.1 55.799999 C 3.4 49.600002 2 43 2 40.799999 L 2 40.799999 C 2 40.700001 2 40.600002 2 40.600002 L 2 40.600002 C 2 40.5 2 40.5 2 40.400002 C 1.9 38.5 1.3 36.700001 0.3 35.200001 C 2.2 20 15.1 8.599998 30.5 8.599998 C 31.200001 8.599998 32 8.599998 32.700001 8.699997 C 41.900002 9.400002 50.299999 14.199997 55.5 21.799999 L 55.5 21.799999 C 59 26.799999 60.799999 32.799999 60.900002 38.900002 Z"/>
    <path id="path14" fill="#ef634f" stroke="none" d="M 7.1 58.200001 C 7.5 57.799999 7.8 57.399998 8.3 57.000004 C 8 56.600002 7.6 56.200001 7.3 55.700001 C 8.1 54.899998 9 53.899998 10 53.000004 L 10 53.000004 C 11.1 52.000004 12.4 51 13.6 50.200001 C 18.5 47 20.700001 46.299999 20.700001 46.299999 C 22.9 45.799999 25.1 45.5 27.299999 45.5 L 27.299999 45.5 L 27.6 44.5 L 27.799999 44.600002 C 27.799999 44.5 27.799999 44.5 27.799999 44.400002 L 28.4 44.400002 L 28.4 44.100002 C 28.4 43.900002 28.5 43.799999 28.5 43.600002 L 28.5 43.5 C 28.5 43.299999 28.5 43.200001 28.6 43 C 28.6 43 28.6 43 28.6 42.900002 C 28.6 42.700001 28.6 42.600002 28.6 42.400002 L 28.6 42.299999 C 28.6 42.200001 28.6 42.200001 28.6 42.100002 L 28.6 42.100002 C 28.6 42 28.9 41.799999 28.9 41.600002 C 28.9 41.299999 29 40.900002 29.1 40.5 C 29.1 40.100002 29.299999 39 29.299999 38.600002 C 28.1 38.600002 27 38 26.1 37.200001 C 24.700001 35.799999 24.6 33 24 30.5 C 24.4 29.900002 23.4 29.900002 23.700001 29.299999 C 23.6 28.900002 23.5 28.600002 23.4 28.299999 C 24.299999 27.100002 25 25.799999 25.6 24.400002 C 25.4 24.5 25.1 24.5 24.9 24.299999 C 25.299999 23.299999 26.799999 21.700001 27.4 20.799999 C 26 22.100002 25.4 20.700001 25 19.200001 C 25.200001 18.300003 24 18.800003 24.6 18.099998 C 24.5 16.900002 24.9 15.699997 25.6 14.800003 C 26.700001 14.199997 27.9 13.800003 29.200001 13.800003 C 30.6 13.699997 32 14.599998 33.099998 15.400002 C 34.099998 14.900002 35.400002 13.599998 35.799999 12.599998 C 34.5 11.599998 33.799999 9.900002 33.200001 8.400002 L 33.099998 8 C 33 7.599998 33 7.199997 33 7 C 33.099998 5.900002 32.700001 5.599998 33.400002 4.599998 C 33.400002 3.300003 34.299999 2.900002 35 1.900002 C 36.400002 1.099998 37.900002 0.099998 40 1.400002 C 48 6 47.799999 10.5 47.799999 10.5 C 54.599998 10.900002 56.400002 18.800003 54.200001 18.900002 C 54.599998 19.700001 54.900002 20.5 55.200001 21.400002 C 56 22.600002 56.799999 23.799999 57.400002 25.100002 L 57.400002 25.200001 C 57.5 26.700001 57 28.200001 56.200001 29.400002 C 55.799999 35.299999 50.299999 36.299999 47.900002 30.100002 C 46.700001 31.900002 45.099998 32 43.5 30.900002 C 43.299999 31.200001 43.099998 31.5 42.900002 31.799999 C 42.299999 33.900002 41.099998 35.700001 39.400002 37 C 38.700001 37.5 38 38.200001 37.400002 38.799999 L 38.099998 43.600002 C 38.200001 43.600002 38.299999 43.600002 38.299999 43.600002 C 38.299999 43.799999 38.400002 44.299999 38.5 44.700001 L 38.5 44.700001 C 41.200001 45 43.799999 45.700001 46.200001 46.900002 C 46.299999 47 46.400002 47 46.400002 47.100002 L 46.400002 47.100002 C 49.700001 49.299999 52.799999 53.700001 54.700001 56.700001 L 54.799999 56.799999 C 54.900002 56.899998 54.799999 56.700001 54.799999 56.799999 C 54.599998 57.100002 54.299999 57.500004 54.099998 57.700001 C 53.700001 58.200001 53.400002 58.600002 53 59.000004"/>
    <path id="path15" fill="#3d8f7c" stroke="none" d="M 50.5 61.700001 L 49.900002 62.200001 C 49.900002 61.700001 49.900002 61.299999 49.900002 61.299999 L 50.5 61.700001 Z"/>
    <path id="path16" fill="#eda391" stroke="none" d="M 49.900002 62.200001 C 48.5 63.399998 46.900002 64.5 45.299999 65.399994 C 44.900002 65.600006 44.599998 65.800003 44.200001 66 L 44.099998 65.699997 L 46.400002 56.100002 L 46.799999 54.600002 L 52.799999 58.500004 C 52.799999 58.500004 52.900002 58.700001 53.200001 59.100002 C 52.400002 60.000004 51.5 60.899998 50.5 61.700001 L 49.900002 62.200001 Z"/>
    <path id="path17" fill="#f48c7f" stroke="none" d="M 14.2 63.299999 C 14.2 63.299999 14 63.700001 13.6 64.199997 L 13.3 64 C 12.9 63.700001 12.5 63.399998 12.1 63.100002 C 10.3 61.700001 8.6 60.100002 7.1 58.399998 L 8.7 57.399998 L 12.5 61.600002 L 13.7 62.899998 L 14.2 63.299999 Z"/>
    <path id="path18" fill="#f2a96f" stroke="none" d="M 20.6 46.299999 L 13.8 62.899998 L 13.3 64 C 12.9 63.700001 12.5 63.399998 12.1 63.100002 C 10.3 61.700001 8.6 60.100002 7.1 58.299999 L 7 58.299999 C 6.6 57.899998 6.3 57.399998 5.9 56.899998 C 7 55.700001 8.3 54.399998 9.9 53.000004 L 9.9 53.000004 C 11 52.000004 12.3 51 13.5 50.200001 C 18.4 47 20.6 46.299999 20.6 46.299999 Z"/>
    <path id="path19" fill="#edc79e" stroke="none" d="M 46.400002 56.100002 C 46.200001 59.200001 45.799999 62.299999 45.299999 65.399994 C 44.900002 65.600006 44.599998 65.800003 44.200001 66 C 43.700001 66.300003 43.099998 66.5 42.599998 66.800003 C 33.099998 70.899994 22.200001 70 13.6 64.300003 L 13.3 64.100006 C 12.9 63.799999 12.5 63.500004 12.1 63.200001 C 12.2 62.600002 12.4 62.100002 12.6 61.600002 C 15.7 51.100002 20.6 46.299999 20.6 46.299999 C 22.799999 45.799999 25 45.5 27.200001 45.5 L 27.4 45.5 L 28.700001 45.5 L 28.700001 45.5 C 30.9 45.5 32.799999 45.600002 34.200001 45.600002 L 34.200001 45.600002 C 35.299999 45.700001 36.099998 45.799999 36.200001 45.799999 L 37 45.900002 L 37.200001 45.900002 C 39.900002 46.200001 42.5 46.900002 44.900002 48.100002 C 45 48.100002 45.099998 48.200001 45.099998 48.299999 L 45.099998 48.299999 C 46.400002 49.200001 46.700001 52.299999 46.400002 56.100002 Z"/>
    <path id="path20" fill="#f2a96f" stroke="none" d="M 53.900002 58.299999 L 53.200001 59.100002 C 52.400002 60.000004 51.5 60.899998 50.5 61.700001 L 49.900002 62.200001 C 48.5 63.399998 46.900002 64.5 45.299999 65.399994 C 44.900002 65.600006 44.599998 65.800003 44.200001 66 C 43.700001 66.300003 43.099998 66.5 42.599998 66.800003 L 41.799999 65.800003 C 39.599998 54.100002 45.299999 48.200001 45.299999 48.200001 L 45.299999 48.200001 C 48.900002 50.5 52 55.200001 53.900002 58.299999 Z"/>
    <path id="path21" fill="#eda391" stroke="none" d="M 37.299999 46.5 C 37.299999 46.5 33.299999 48.5 29.9 48 C 27 47.5 27.4 46 27.4 46 L 27.5 45.600002 C 27.6 45.400002 27.6 45.100002 27.700001 44.700001 C 27.700001 44.600002 27.700001 44.600002 27.700001 44.5 C 27.799999 43.900002 28 43.100002 28.1 42.200001 C 28.1 42.100002 28.200001 42 28.200001 41.799999 C 28.200001 41.5 28.299999 41.200001 28.299999 40.799999 C 28.299999 40.400002 28.4 40.200001 28.4 39.799999 C 28.4 39.700001 28.4 39.5 28.4 39.400002 C 28.4 39.299999 28.4 39.100002 28.4 39 C 28.4 38.700001 28.4 38.400002 28.4 38.200001 C 28.4 38.100002 28.4 37.900002 28.4 37.799999 C 28.4 37.700001 28.4 37.600002 28.4 37.5 C 28 35.100002 33.599998 36.100002 35.299999 36.400002 L 35.299999 36.400002 L 35.799999 36.5 L 35.900002 36.900002 L 36 37.299999 L 36.200001 38.700001 L 37.099998 44.900002 L 37.299999 46 L 37.299999 46.5 Z"/>
    <path id="path22" fill="#ef7358" stroke="none" d="M 35.900002 37.200001 C 35.799999 37.400002 35.700001 37.600002 35.599998 37.799999 C 35.5 38.100002 35.299999 38.400002 35 38.600002 C 33.200001 40.5 30.799999 41.600002 28.200001 41.700001 C 28.299999 41.100002 28.4 40.400002 28.4 39.799999 C 28.4 39.5 28.4 39.200001 28.4 39 C 28.4 38.600002 28.4 38.100002 28.4 37.700001 C 28.4 37.600002 28.4 37.5 28.4 37.400002 C 28 35 33.599998 36 35.299999 36.299999 L 35.299999 36.299999 L 35.799999 36.400002 L 35.900002 36.799999 L 35.900002 37.200001 Z"/>
    <path id="path23" fill="#eda391" stroke="none" d="M 35.900002 36.700001 L 35.900002 36.700001 C 35.700001 36.799999 35.599998 37 35.400002 37.100002 L 35.400002 37.100002 C 33.5 38.799999 31 39.799999 28.4 39.700001 L 28.4 39.700001 C 27.200001 39.700001 26 39.200001 25.1 38.400002 C 23.700001 37 23.200001 33.799999 22.5 31.200001 C 22.299999 30.5 22.200001 29.900002 22 29.400002 C 23.1 27.799999 24 26.100002 24.700001 24.299999 C 25.1 23.299999 25.6 22.299999 26.200001 21.400002 L 26.200001 21.400002 C 26.299999 21.200001 26.5 21 26.6 20.799999 L 26.6 20.799999 C 26.799999 20.600002 27 20.400002 27.200001 20.200001 L 27.200001 20.200001 L 27.5 19.900002 C 31 17.400002 34.599998 19.900002 36.200001 21.299999 L 36.200001 21.299999 C 36.5 21.5 36.700001 21.799999 37 22 C 37.099998 22.299999 37.200001 22.5 37.200001 22.799999 L 37.200001 22.799999 C 37.700001 25.5 38.400002 34.100002 35.900002 36.700001 Z"/>
    <path id="path24" fill="#180d0d" stroke="none" d="M 43.200001 28.299999 C 43.099998 28.700001 43.099998 29.100002 43 29.5 C 42.400002 31.600002 41.200001 33.400002 39.599998 34.700001 C 36.599998 37 36.200001 38.400002 36.200001 38.600002 L 36.200001 38.600002 L 35.799999 37.900002 L 35.799999 37.799999 C 35.799999 37.700001 35.799999 37.700001 35.700001 37.600002 C 35.599998 37.5 35.599998 37.299999 35.599998 37.200001 L 35.599998 37.200001 C 35.5 36.900002 35.5 36.600002 35.5 36.299999 L 35.5 36.299999 C 35.5 36 35.5 35.600002 35.599998 35.100002 C 35.700001 34.400002 35.799999 33.700001 36.099998 33.100002 L 36.099998 33.100002 C 36.099998 33 36.099998 33 36.200001 33 C 36.900002 31.600002 35.299999 30.5 34.299999 29.400002 C 34.099998 29.200001 34 29 33.799999 28.799999 C 30.700001 24.200001 32.900002 22.100002 31.4 22.100002 C 30.4 22.100002 28.700001 19.600002 27.4 20.200001 L 27.4 20.200001 C 27.200001 20.299999 27 20.5 26.9 20.799999 L 26.9 20.799999 L 26.9 20.799999 C 26.799999 21 26.6 21.200001 26.5 21.400002 L 26.5 21.400002 C 25.4 22.700001 24.299999 21.900002 23.799999 20.400002 C 23.200001 18.199997 24 15.900002 25.9 14.699997 C 27 14.099998 28.200001 13.699997 29.5 13.699997 C 30.9 13.599998 32.200001 14 33.400002 14.800003 C 34.400002 15.599998 35.400002 16.5 36.200001 17.5 C 36.900002 17.599998 37.700001 17.800003 38.299999 18.199997 C 40 19.200001 41.299999 20.600002 42.200001 22.400002 C 43.099998 24.100002 43.5 26.200001 43.200001 28.299999 Z"/>
    <path id="path25" fill="#eda391" stroke="none" d="M 33.799999 30.799999 C 33.799999 32.200001 34.400002 33.400002 35.200001 33.400002 C 36 33.400002 36.700001 32.299999 36.700001 30.900002 C 36.700001 29.5 36.099998 28.299999 35.299999 28.299999 C 34.5 28.200001 33.799999 29.400002 33.799999 30.799999 Z"/>
    <path id="path26" fill="#f2a96f" stroke="none" d="M 37.5 46.400002 C 35.400002 48 30.9 48.400002 29.1 47.799999 C 27.5 47.299999 27.200001 46 27.299999 45.5 C 27.299999 45.5 27.299999 45.5 27.299999 45.400002 L 27.299999 45.400002 L 27.6 44.400002 L 27.799999 44.5 C 28.1 44.700001 28.4 45.100002 28.9 45.400002 C 29.700001 45.900002 30.700001 46.200001 31.700001 46 C 32.599998 45.900002 33.599998 45.799999 34.5 45.5 L 34.5 45.5 C 35.700001 45.200001 36.700001 44.799999 37.200001 44.700001 C 37.299999 44.700001 37.400002 44.700001 37.400002 44.700001 C 37.5 45.100002 37.5 45.400002 37.599998 45.799999 C 37.5 46.200001 37.5 46.400002 37.5 46.400002 Z"/>
    <path id="path27" fill="#f2a96f" stroke="none" d="M 50.200001 22.400002 C 47.700001 24.100002 45.5 26.200001 43.5 28.600002 C 43.299999 28.900002 43.099998 29.200001 42.900002 29.5 L 42.900002 29.5 C 40.700001 27.600002 38.799999 25.299999 37.200001 22.900002 C 36.900002 22.400002 36.599998 21.900002 36.299999 21.400002 L 36.299999 21.400002 C 35.099998 19.400002 34 17.199997 33.200001 15 C 34.200001 14.5 35 13.599998 35.5 12.599998 C 36 11.699997 36.299999 10.699997 36.400002 9.699997 C 36.400002 9.5 42.599998 14.900002 50.200001 22.400002 Z"/>
    <path id="path28" fill="#edc79e" stroke="none" d="M 48 27.799999 C 46.799999 29.600002 45.200001 29.700001 43.599998 28.600002 L 43.200001 28.299999 C 41 26.600002 39 22.700001 38.099998 18.300003 C 37.799999 16.800003 37.700001 15.300003 37.700001 13.800003 C 36.900002 13.5 36.200001 13.099998 35.5 12.599998 C 34.200001 11.599998 33.200001 10.300003 32.700001 8.699997 L 32.599998 8.5 C 32.5 8.300003 32.5 8 32.400002 7.800003 C 31.799999 5.099998 32.799999 2.300003 34.799999 1.099998 C 36.200001 0.300003 38 0.199997 40.200001 1.400002 C 48.200001 6 48 10.5 48 10.5 C 54.799999 10.900002 56.599998 18.800003 54.400002 18.900002 C 54.799999 19.700001 55.099998 20.5 55.400002 21.400002 C 55.400002 21.5 55.5 21.600002 55.5 21.700001 C 58.900002 32.100002 51 35.5 48 27.799999 Z"/>
    <path id="path29" fill="#eda391" stroke="none" d="M 2 40.799999 C 2 40.700001 2 40.600002 2 40.600002 C 2 40.600002 2 40.700001 2 40.799999 Z"/>
    <path id="path30" fill="#f2a96f" stroke="none" d="M 29.081657 50.382519 C 29.516068 50.463112 29.745726 51.188728 29.59462 52.003242 C 29.443516 52.817749 28.968868 53.412712 28.534456 53.332123 C 28.100054 53.251534 27.870396 52.525909 28.021502 51.711403 C 28.172607 50.896889 28.647253 50.301929 29.081657 50.382519 Z"/>
    <path id="path31" fill="#f2a96f" stroke="none" d="M 28.112757 55.956619 C 28.547167 56.037209 28.776825 56.762833 28.625719 57.577339 C 28.474615 58.39185 27.999968 58.986809 27.565557 58.906219 C 27.131153 58.82563 26.901497 58.10001 27.052601 57.2855 C 27.203707 56.470993 27.678354 55.87603 28.112757 55.956619 Z"/>
    <path id="path32" fill="#f2a96f" stroke="none" d="M 27.055857 61.39502 C 27.490267 61.475609 27.719925 62.201233 27.568819 63.015739 C 27.417715 63.83025 26.943068 64.425209 26.508657 64.34462 C 26.074253 64.26403 25.844597 63.53841 25.995701 62.7239 C 26.146807 61.909389 26.621454 61.31443 27.055857 61.39502 Z"/>
</svg>
